<?xml version="1.0" encoding="utf-8"?>
<!-- Generator: Adobe Illustrator 21.0.1, SVG Export Plug-In . SVG Version: 6.00 Build 0)  -->
<svg version="1.1" id="Layer_1" xmlns="http://www.w3.org/2000/svg" xmlns:xlink="http://www.w3.org/1999/xlink" x="0px" y="0px"
	 viewBox="0 0 589.8 671.5" style="enable-background:new 0 0 589.8 671.5;" xml:space="preserve">
<style type="text/css">
	.st0{fill:#FFFEF8;stroke:#000000;stroke-width:2;stroke-miterlimit:10;}
	.st1{fill:none;stroke:#000000;stroke-width:0.7419;stroke-miterlimit:10;}
	.st2{fill:none;stroke:#000000;stroke-width:1.3813;stroke-miterlimit:10;}
	.st3{fill:#F9F441;stroke:#000000;stroke-width:1.3813;stroke-miterlimit:10;}
	.st4{fill:#FDFEFF;}
</style>
<g>
	<circle class="st0" cx="294.9" cy="294.9" r="294.9"/>
	<path class="st1" d="M284.5,747.8c0.1-1.9-0.1-4.5-0.7-5.9"/>
	<path class="st1" d="M-356.9,928.4c0,0.5,0,1,0,1.5"/>
	<path class="st2" d="M141.5,458c-0.5-26.5-3-177.2-1-202.8c1.7-22.2,4.2-44.8,4.3-67.1c0-8.2-1.9-16.3-2.1-24.4
		c-0.2-10.2,2.8-20.9,2.5-31.3c-0.2-10.2-4.6-22.6-0.9-34.1c5.2,2.3,16.4,1.8,22.5,2.8c8,1.2,15.6,0.3,23.5,0
		c18.3-0.9,36.3-1,54.4-1.8c24.2-1.2,48.8-3,72.8-1.8c16.4,0.8,32,4.4,47.9,3.6c10.2-0.5,11.7-0.9,18.9,6.5
		c5.6,5.7,11.5,9.9,17.8,14.7c12.6,9.8,23.7,21.8,34.1,34c11.2,13.3,5.7,39.8,4.8,57c-1.3,25.2-3.1,51.4-1.9,77.1
		c1.7,35.3,3.4,71.2,0.1,106.5c-2.2,23.7,0.4,49.2,2.7,73c0.5,5,0.9,9.8,1,14.9c-8.3-1.9-23.2,2.5-32.4,3.3
		c-8.5,0.7-15.7-0.6-23.9-1.1c-42-2.6-83.8-0.7-125.8,1.7c-29.9,1.7-59.1,2.5-88.8,5.7c-6.3,0.7-21.8,4-27-0.8
		c-6.5-6.1-3.7-30.5-3.4-38.1"/>
	<path class="st2" d="M375.6,102.1c-0.2,13.8-2.3,32.6-1.8,48.8c0.3,11.2,3.1,10,13.4,11.1c8.1,0.8,16.4,1.3,24.9,0.9
		c7-0.3,20.7-2.9,25.3,0"/>
	<path class="st2" d="M207.2,445c0-7.8-2-24.9-0.9-34.3c6.7-0.5,14.2-0.1,20.9,0c2.8,10,2.9,22.5,2.9,33"/>
	<path class="st2" d="M229.4,423.7c0.2-4.3-2.2-18.1-2-22.2c7.5-0.1,17.3,0,24.6,1.8c0.4,7.7,2,36.7,2,41.1"/>
	<path class="st2" d="M261.4,442.8c0-25.4-3.9-49.3-2.6-74.4c8.1,1.5,15.9-1,23.7,0.9c1.3,24.4,3.5,50.2,2.9,74.5"/>
	<path class="st2" d="M283.9,394.1c6.2-0.3,12.5-0.1,19.7,0c0.5,9.9,1,19.1,2,28.9c0.4,4,0.5,7.4,0.9,11.5c0.3,3.3-0.8,10.2,0.9,8.3
		"/>
	<path class="st2" d="M314.8,442.8c0-14.5-2.5-28.8-1.7-43.1c7.2-0.4,14.6-0.3,21.8,0c0.7,13.3-0.8,32,1.1,44"/>
	<path class="st2" d="M334.1,399.5c0-8.8-0.4-17.8,0.2-26.6c5.4,1.9,11.9,0.7,17.3,2.7c6.3,2.4,3.8-1.1,6.4,5.4c2,5,0.7,11.3,1,16.6
		c0.8,15.4,1.9,30.6,1.9,46.1"/>
	<path class="st2" d="M370,443.7c-9.2,0-24.4,1.3-32.7,0.9c-11.4-0.5-23.6-0.4-34.5-0.9c-12.3-0.6-25.6,0.7-37.3,0.7
		c-11.7,0-20.8,0.2-33.2,0.2c-13.8,0-27.2,0.3-40.8,1.1c-1,2.6-1.6,5.7-1.1,8.7c21.3,0,41.5-1.3,63.6-1.3c23.3,0,49.6,5.1,72.5,1.9
		c14.4-2,29.4-1.1,43.3-1.3C370,451.2,370,445.1,370,443.7z"/>
	<path class="st3" d="M347.9,174.8c0,17.7-4.3,43.4,2,59.5c15.7-4.4,38.1,1.4,55,2.3c6.9,37.6-37.4,58.3-68.5,52.8
		c-13.8-2.5-39.9-13.3-47.7-26.2c-8.7-14.6-3.5-46.5,5.3-59.8C303.1,189.8,329.5,171.8,347.9,174.8z"/>
	<path class="st2" d="M355.3,170.2c0.1,18,0.7,36.4,2,54.2c7.1-2.2,16.4,1.6,24.2,1.9c9.2,0.4,18.8,0.3,27.9-0.1
		c-1.6-12.9-8.7-29.5-18.3-39.5C384.1,179.4,362.4,165.4,355.3,170.2z"/>
	<path class="st2" d="M162.8,199.2c0.2,3.2-1.8,21.2,0.6,24.9c2.8,4.4,18.8,1.5,24.1,1.3c-1.8-7-3.6-18.2-3.5-25.3
		C177.3,201.1,171.3,202.6,162.8,199.2z"/>
	<path class="st2" d="M164.9,244.1c-0.2,3.1-1,20.1,1.2,22.3c2.5,2.5,17.1,0.6,20.8,0.4c0.4-7.4-0.3-14.3-1.4-21.2
		C178.6,245.2,171.5,246.9,164.9,244.1z"/>
	<path class="st2" d="M164.2,291.1c0,7.8-0.3,15.7,0.1,23.4c7.8,0.4,14.8-2.9,22.6-2.8c-0.5-6.4-1.4-12.9-2.1-19.1
		C177.9,292.2,169.3,291,164.2,291.1z"/>
	<path class="st2" d="M164.9,327.7c0,7.2,0.4,14.2,0.8,21.3c6.9,0.4,14.3,0.4,21.2,0c0.4-7,0.4-14.3,0-21.2
		C180.3,329.8,171.2,328.4,164.9,327.7z"/>
	<path class="st2" d="M200.8,337.3c5.1,1.7,16.7,2.4,22.9,2c14.1-0.9,28.4-3.8,43-4.7c11-0.6,26.1-0.1,37.7,2.4
		c6.3,1.3,11.5,2.7,17.9,3c5.5,0.3,10.4-2.6,15.9-2"/>
	<path class="st2" d="M203.6,302.8c2.7,4.4,17.9-0.1,22.7,0.1c3.6,0.1,7.2,2.1,10.8,1.9c3.2-0.2,5.9-2.4,9.1-2.3
		c3.3,0.1,6.9,4.1,9.9,3.7c2.8-0.4,4.1-4.1,7.2-4.8c3.3-0.7,6,2.2,9.1,2c2.8-0.1,5.2-2.1,8-2.6c5-0.9,12.4-1.2,17.6-0.9
		c4.7,0.3,15.9,5.6,19.6,3.5"/>
	<path class="st2" d="M200.8,259.3c2.5-8.5,6,0.7,10.1,0.7c2.5,0,4.8-3.2,7.3-3.5c2.9-0.3,7.9,0.8,11.2,0.7
		c7.1-0.3,14.4,0.5,21.1,0.6c4.7,0,13.6-2.3,17.3-0.6"/>
	<path class="st2" d="M202.9,211c5.2-5.5,7.7,0.9,13.1,1.4c3.9,0.3,5.8-3.1,9-3.4c3.4-0.3,6.7,2.6,10.2,2.9c6.2,0.5,13-3.1,19.1-3.7
		c4.9-0.5,10.4,0.7,15.5,0.7"/>
	<g>
		<path class="st4" d="M83.4,634.9c-3,13.7-14.4,19.6-25,19.6c-14.6,0-26.4-12.6-26.4-28.1c0-15.6,11.2-28.1,26.4-28.1
			c9.5,0,16.2,3.5,20.9,9.3l-8.1,8.9c-3.2-5.1-7.3-7-12.1-7c-7.6,0-13.8,7.6-13.8,17c0,9.2,6.2,16.7,13.8,16.7
			c5.9,0,11.8-3.8,11.8-10.4H58.4v-9.5h25V634.9L83.4,634.9z"/>
		<path class="st4" d="M88.8,619.8h11.6v4.9h0.1c0,0,3.7-5.8,10.3-5.8c4.3,0,7.4,2.1,7.4,2.1l-4.9,9.9c0,0-2.2-1.8-6-1.8
			c-6,0-6.9,6-6.9,6.8v17.7H88.8V619.8L88.8,619.8z"/>
		<path class="st4" d="M135.4,618.8c4.5,0,8.3,1.5,11,4.2v-3.2H158v33.7h-11.5v-3.8h-0.1c-2.5,2.8-6.4,4.8-11,4.8
			c-9.9,0-16.8-8-16.8-17.8S125.5,618.8,135.4,618.8z M138.8,644.6c4.5,0,7.8-3.3,7.8-7.9c0-4.7-3.5-8-7.8-8c-4.4,0-7.9,3.3-7.9,8
			C131,641.3,134.1,644.6,138.8,644.6z"/>
		<path class="st4" d="M188.6,654.5c-4.5,0-8.3-1.5-11-4.2v20.3H166v-50.8h11.5v3.8h0.1c2.5-2.8,6.4-4.8,11-4.8
			c9.9,0,16.8,8,16.8,17.8C205.4,646.5,198.5,654.5,188.6,654.5z M185.1,628.8c-4.5,0-7.8,3.3-7.8,7.9c0,4.7,3.5,8,7.8,8
			c4.4,0,7.9-3.3,7.9-8S189.8,628.8,185.1,628.8z"/>
		<path class="st4" d="M210.8,597h11.6v26.4h0.1c2.6-2.6,6-4.5,9.7-4.5c6.2,0,14.8,3.1,14.8,12.5v22.2h-11.6v-19.1
			c0-3.4-2.3-6.6-6-6.6c-3.5,0-6.9,3.2-6.9,6.6v19.1h-11.6V597H210.8z"/>
		<path class="st4" d="M267.1,605.9c0,3.8-3.1,6.9-6.9,6.9s-6.9-3.1-6.9-6.9s3.1-6.9,6.9-6.9S267.1,602.1,267.1,605.9z M254.3,653.5
			h11.6v-33.7h-11.6L254.3,653.5L254.3,653.5z"/>
		<path class="st4" d="M284,636.6c0,4.7,3.6,8.3,8,8.3c3.5,0,5.7-1.6,5.7-1.6l3.9,8.1c0,0-3.8,3-11.3,3c-9.7,0-18.7-7.9-18.7-17.7
			c0-9.9,8.9-17.9,18.7-17.9c7.5,0,11.3,3.2,11.3,3.2l-3.9,8c0,0-2.2-1.6-5.7-1.6C287.6,628.4,284,632,284,636.6z"/>
		<path class="st4" d="M340,599.3c14.9,0,27.3,11.3,27.3,27.1s-12.4,27.1-27.3,27.1h-15.7v-54.2L340,599.3L340,599.3z M338.6,642.5
			c9.1,0,15.4-7,15.4-16c0-9.1-6.2-16.1-15.4-16.1h-1.9v32.1H338.6z"/>
		<path class="st4" d="M382.5,638.3c0,5.2,4.3,7,7.3,7c3.7,0,5.4-0.7,8.2-3.7l8.4,4.2c-3.8,6.4-10,8.8-17.5,8.8
			c-10.2,0-18.5-8-18.5-17.8c0-9.9,8.3-17.9,18.5-17.9c10.3,0,18.1,6,18.1,17.9c0,0.5,0,1.2-0.1,1.6L382.5,638.3L382.5,638.3z
			 M395.6,631.8c-0.5-3.5-3-5.5-6.4-5.5c-4,0-6.2,2.4-6.4,5.5H395.6z"/>
		<path class="st4" d="M438.1,621.5l-3.8,7.6c0,0-3.9-2.1-7.5-2.1c-2.6,0-3.6,0.5-3.6,2c0,1.8,2.4,2.3,5.3,3.2
			c4.5,1.4,10.3,3.9,10.3,10.8c0,9.9-9.1,11.5-16,11.5c-8.1,0-13-4.5-13-4.5l4.7-8c0,0,4.6,3.9,8.3,3.9c1.6,0,3.6-0.2,3.6-2.4
			c0-2.4-3.7-2.6-7.5-4.6c-3.4-1.8-6.8-4.1-6.8-9.2c0-6.9,5.8-10.8,14.7-10.8C433.3,618.8,438.1,621.5,438.1,621.5z"/>
		<path class="st4" d="M457.4,605.9c0,3.8-3.1,6.9-6.9,6.9s-6.9-3.1-6.9-6.9s3.1-6.9,6.9-6.9S457.4,602.1,457.4,605.9z M444.5,653.5
			h11.6v-33.7h-11.6V653.5z"/>
		<path class="st4" d="M472.4,657.1c1.2,2,4.1,4.3,9.1,4.3c3.2,0,8.2-1.9,8.2-7.9V651c-2.5,2.8-6.4,3.4-11,3.4
			c-9.9,0-16.8-8-16.8-17.8s6.9-17.9,16.8-17.9c4.5,0,8.1,1.4,10.8,4h0.2v-3h11.6v34.6c0,11.3-8.3,17.2-19.8,17.2
			c-7,0-15.1-1.6-18.7-9.8L472.4,657.1z M482.2,644.6c4.5,0,7.8-3.3,7.8-7.9c0-4.7-3.5-8-7.8-8c-4.4,0-7.9,3.3-7.9,8
			C474.3,641.3,477.4,644.6,482.2,644.6z"/>
		<path class="st4" d="M509.2,619.8h11.6v3.5h0.1c2.6-2.6,6-4.5,9.7-4.5c6.2,0,14.8,3.1,14.8,12.5v22.2h-11.6v-19.1
			c0-3.4-2.3-6.6-6-6.6c-3.5,0-6.9,3.2-6.9,6.6v19.1h-11.6L509.2,619.8L509.2,619.8z"/>
	</g>
</g>
</svg>
