<?xml version="1.0" encoding="utf-8"?>
<!-- Generator: Adobe Illustrator 21.0.1, SVG Export Plug-In . SVG Version: 6.00 Build 0)  -->
<svg version="1.1" id="Layer_1" xmlns="http://www.w3.org/2000/svg" xmlns:xlink="http://www.w3.org/1999/xlink" x="0px" y="0px"
	 viewBox="0 0 792 792" style="enable-background:new 0 0 792 792;" xml:space="preserve">
<style type="text/css">
	.st0{fill:#F9E4E4;stroke:#000000;stroke-width:2;stroke-miterlimit:10;}
	.st1{fill:none;stroke:#000000;stroke-width:0.7419;stroke-miterlimit:10;}
	.st2{fill:none;stroke:#000000;stroke-width:1.3813;stroke-miterlimit:10;}
	.st3{fill:#F2F2F7;}
</style>
<g>
	<circle class="st0" cx="410.7" cy="371.7" r="294.9"/>
	<path class="st1" d="M400.3,824.6c0.1-1.9-0.1-4.5-0.7-5.9"/>
	<path class="st1" d="M-241.1,1005.2c0,0.5,0,1,0,1.5"/>
	<path class="st2" d="M257.3,534.8c-0.5-26.5-3-177.2-1-202.8c1.7-22.2,4.2-44.8,4.3-67.1c0-8.2-1.9-16.3-2.1-24.4
		c-0.2-10.2,2.8-20.9,2.5-31.3c-0.2-10.2-4.6-22.6-0.9-34.1c5.2,2.3,16.4,1.8,22.5,2.8c8,1.2,15.6,0.3,23.5,0
		c18.3-0.9,36.3-1,54.4-1.8c24.2-1.2,48.8-3,72.8-1.8c16.4,0.8,32,4.4,47.9,3.6c10.2-0.5,11.7-0.9,18.9,6.5
		c5.6,5.7,11.5,9.9,17.8,14.7c12.6,9.8,23.7,21.8,34.1,34c11.2,13.3,5.7,39.8,4.8,57c-1.3,25.2-3.1,51.4-1.9,77.1
		c1.7,35.3,3.4,71.2,0.1,106.5c-2.2,23.7,0.4,49.2,2.7,73c0.5,5,0.9,9.8,1,14.9c-8.3-1.9-23.2,2.5-32.4,3.3
		c-8.5,0.7-15.7-0.6-23.9-1.1c-42-2.6-83.8-0.7-125.8,1.7c-29.9,1.7-59.1,2.5-88.8,5.7c-6.3,0.7-21.8,4-27-0.8
		c-6.5-6.1-3.7-30.5-3.4-38.1"/>
	<path class="st2" d="M491.4,178.9c-0.2,13.8-2.3,32.6-1.8,48.8c0.3,11.2,3.1,10,13.4,11.1c8.1,0.8,16.4,1.3,24.9,0.9
		c7-0.3,20.7-2.9,25.3,0"/>
	<path class="st2" d="M323,521.8c0-7.8-2-24.9-0.9-34.3c6.7-0.5,14.2-0.1,20.9,0c2.8,10,2.9,22.5,2.9,33"/>
	<path class="st2" d="M345.2,500.5c0.2-4.3-2.2-18.1-2-22.2c7.5-0.1,17.3,0,24.6,1.8c0.4,7.7,2,36.7,2,41.1"/>
	<path class="st2" d="M377.2,519.6c0-25.4-3.9-49.3-2.6-74.4c8.1,1.5,15.9-1,23.7,0.9c1.3,24.4,3.5,50.2,2.9,74.5"/>
	<path class="st2" d="M399.7,470.9c6.2-0.3,12.5-0.1,19.7,0c0.5,9.9,1,19.1,2,28.9c0.4,4,0.5,7.4,0.9,11.5c0.3,3.3-0.8,10.2,0.9,8.3
		"/>
	<path class="st2" d="M430.6,519.6c0-14.5-2.5-28.8-1.7-43.1c7.2-0.4,14.6-0.3,21.8,0c0.7,13.3-0.8,32,1.1,44"/>
	<path class="st2" d="M449.9,476.3c0-8.8-0.4-17.8,0.2-26.6c5.4,1.9,11.9,0.7,17.3,2.7c6.3,2.4,3.8-1.1,6.4,5.4c2,5,0.7,11.3,1,16.6
		c0.8,15.4,1.9,30.6,1.9,46.1"/>
	<path class="st2" d="M485.8,520.5c-9.2,0-24.4,1.3-32.7,0.9c-11.4-0.5-23.6-0.4-34.5-0.9c-12.3-0.6-25.6,0.7-37.3,0.7
		c-11.7,0-20.8,0.2-33.2,0.2c-13.8,0-27.2,0.3-40.8,1.1c-1,2.6-1.6,5.7-1.1,8.7c21.3,0,41.5-1.3,63.6-1.3c23.3,0,49.6,5.1,72.5,1.9
		c14.4-2,29.4-1.1,43.3-1.3C485.8,528,485.8,521.9,485.8,520.5z"/>
	<path class="st2" d="M463.7,251.6c0,17.7-4.3,43.4,2,59.5c15.7-4.4,38.1,1.4,55,2.3c6.9,37.6-37.4,58.3-68.5,52.8
		c-13.8-2.5-39.9-13.3-47.7-26.2c-8.7-14.6-3.5-46.5,5.3-59.8C418.9,266.6,445.3,248.6,463.7,251.6z"/>
	<path class="st2" d="M471.1,247c0.1,18,0.7,36.4,2,54.2c7.1-2.2,16.4,1.6,24.2,1.9c9.2,0.4,18.8,0.3,27.9-0.1
		c-1.6-12.9-8.7-29.5-18.3-39.5C499.9,256.2,478.2,242.2,471.1,247z"/>
	<path class="st2" d="M278.6,276c0.2,3.2-1.8,21.2,0.6,24.9c2.8,4.4,18.8,1.5,24.1,1.3c-1.8-7-3.6-18.2-3.5-25.3
		C293.1,277.9,287.1,279.4,278.6,276z"/>
	<path class="st2" d="M280.7,320.9c-0.2,3.1-1,20.1,1.2,22.3c2.5,2.5,17.1,0.6,20.8,0.4c0.4-7.4-0.3-14.3-1.4-21.2
		C294.4,322,287.3,323.7,280.7,320.9z"/>
	<path class="st2" d="M280,367.9c0,7.8-0.3,15.7,0.1,23.4c7.8,0.4,14.8-2.9,22.6-2.8c-0.5-6.4-1.4-12.9-2.1-19.1
		C293.7,369,285.1,367.8,280,367.9z"/>
	<path class="st2" d="M280.7,404.5c0,7.2,0.4,14.2,0.8,21.3c6.9,0.4,14.3,0.4,21.2,0c0.4-7,0.4-14.3,0-21.2
		C296.1,406.6,287,405.2,280.7,404.5z"/>
	<path class="st2" d="M316.6,414.1c5.1,1.7,16.7,2.4,22.9,2c14.1-0.9,28.4-3.8,43-4.7c11-0.6,26.1-0.1,37.7,2.4
		c6.3,1.3,11.5,2.7,17.9,3c5.5,0.3,10.4-2.6,15.9-2"/>
	<path class="st2" d="M319.4,379.6c2.7,4.4,17.9-0.1,22.7,0.1c3.6,0.1,7.2,2.1,10.8,1.9c3.2-0.2,5.9-2.4,9.1-2.3
		c3.3,0.1,6.9,4.1,9.9,3.7c2.8-0.4,4.1-4.1,7.2-4.8c3.3-0.7,6,2.2,9.1,2c2.8-0.1,5.2-2.1,8-2.6c5-0.9,12.4-1.2,17.6-0.9
		c4.7,0.3,15.9,5.6,19.6,3.5"/>
	<path class="st2" d="M316.6,336.1c2.5-8.5,6,0.7,10.1,0.7c2.5,0,4.8-3.2,7.3-3.5c2.9-0.3,7.9,0.8,11.2,0.7
		c7.1-0.3,14.4,0.5,21.1,0.6c4.7,0,13.6-2.3,17.3-0.6"/>
	<path class="st2" d="M318.7,287.8c5.2-5.5,7.7,0.9,13.1,1.4c3.9,0.3,5.8-3.1,9-3.4c3.4-0.3,6.7,2.6,10.2,2.9
		c6.2,0.5,13-3.1,19.1-3.7c4.9-0.5,10.4,0.7,15.5,0.7"/>
	<g>
		<path class="st3" d="M198.1,724.4c-3.1,14.2-14.9,20.3-25.9,20.3c-15.1,0-27.3-13-27.3-29c0-16.1,11.6-29.1,27.3-29.1
			c9.9,0,16.7,3.7,21.6,9.6l-8.4,9.2c-3.3-5.2-7.5-7.2-12.5-7.2c-7.9,0-14.3,7.8-14.3,17.5c0,9.5,6.4,17.3,14.3,17.3
			c6.1,0,12.2-3.9,12.2-10.8h-12.9v-9.9h25.9V724.4z"/>
		<path class="st3" d="M203.7,708.8h12v5h0.1c0,0,3.8-6.1,10.7-6.1c4.5,0,7.6,2.2,7.6,2.2l-5,10.2c0,0-2.2-1.9-6.3-1.9
			c-6.3,0-7.1,6.2-7.1,7.1v18.4h-12V708.8z"/>
		<path class="st3" d="M251.9,707.7c4.7,0,8.6,1.6,11.4,4.4v-3.3h12v34.9h-11.9v-3.9h-0.1c-2.6,2.9-6.7,5-11.4,5
			c-10.2,0-17.3-8.2-17.3-18.4S241.7,707.7,251.9,707.7z M255.5,734.4c4.7,0,8.1-3.4,8.1-8.2c0-4.8-3.6-8.2-8.1-8.2
			c-4.6,0-8.2,3.4-8.2,8.2C247.3,731,250.6,734.4,255.5,734.4z"/>
		<path class="st3" d="M307,744.7c-4.7,0-8.6-1.6-11.4-4.4v21h-12v-52.6h11.9v3.9h0.1c2.6-2.9,6.7-5,11.4-5
			c10.2,0,17.3,8.2,17.3,18.4C324.3,736.4,317.2,744.7,307,744.7z M303.4,718c-4.7,0-8.1,3.4-8.1,8.2c0,4.8,3.6,8.2,8.1,8.2
			c4.6,0,8.2-3.4,8.2-8.2C311.5,721.4,308.2,718,303.4,718z"/>
		<path class="st3" d="M329.9,685.2h12v27.3h0.1c2.7-2.7,6.2-4.7,10-4.7c6.4,0,15.3,3.2,15.3,12.9v23h-12v-19.7
			c0-3.5-2.4-6.8-6.3-6.8c-3.6,0-7.1,3.3-7.1,6.8v19.7h-12V685.2z"/>
		<path class="st3" d="M388.2,694.3c0,3.9-3.2,7.1-7.1,7.1c-3.9,0-7.1-3.2-7.1-7.1s3.2-7.1,7.1-7.1
			C385,687.2,388.2,690.4,388.2,694.3z M374.9,743.6h12v-34.9h-12V743.6z"/>
		<path class="st3" d="M405.7,726.2c0,4.8,3.7,8.6,8.3,8.6c3.6,0,5.8-1.6,5.8-1.6l4.1,8.4c0,0-3.9,3.1-11.7,3.1
			c-10.1,0-19.3-8.2-19.3-18.4c0-10.3,9.2-18.6,19.3-18.6c7.8,0,11.7,3.3,11.7,3.3l-4.1,8.2c0,0-2.2-1.6-5.8-1.6
			C409.4,717.6,405.7,721.4,405.7,726.2z"/>
		<path class="st3" d="M463.6,687.5c15.4,0,28.3,11.7,28.3,28c0,16.4-12.9,28.1-28.3,28.1h-16.3v-56.1H463.6z M462.1,732.2
			c9.5,0,15.9-7.2,16-16.6c0-9.4-6.5-16.7-16-16.7h-2v33.2H462.1z"/>
		<path class="st3" d="M507.6,727.9c0,5.4,4.5,7.2,7.5,7.2c3.9,0,5.6-0.7,8.5-3.9l8.7,4.4c-3.9,6.6-10.3,9.1-18.1,9.1
			c-10.5,0-19.2-8.3-19.2-18.4c0-10.2,8.6-18.5,19.2-18.5c10.6,0,18.7,6.3,18.7,18.5c0,0.5,0,1.2-0.1,1.6H507.6z M521.2,721.2
			c-0.5-3.7-3.1-5.6-6.6-5.6c-4.1,0-6.5,2.4-6.7,5.6H521.2z"/>
		<path class="st3" d="M565.1,710.5l-3.9,7.9c0,0-4.1-2.2-7.8-2.2c-2.7,0-3.7,0.5-3.7,2.1c0,1.8,2.4,2.4,5.4,3.3
			c4.6,1.4,10.6,4,10.6,11.2c0,10.3-9.4,11.9-16.5,11.9c-8.4,0-13.5-4.7-13.5-4.7l4.9-8.2c0,0,4.8,4,8.6,4c1.7,0,3.7-0.2,3.7-2.5
			c0-2.5-3.8-2.7-7.8-4.8c-3.5-1.8-7.1-4.3-7.1-9.5c0-7.1,6.1-11.2,15.2-11.2C560.2,707.7,565.1,710.5,565.1,710.5z"/>
		<path class="st3" d="M585.1,694.3c0,3.9-3.2,7.1-7.1,7.1c-3.9,0-7.1-3.2-7.1-7.1s3.2-7.1,7.1-7.1
			C581.9,687.2,585.1,690.4,585.1,694.3z M571.7,743.6h12v-34.9h-12V743.6z"/>
		<path class="st3" d="M600.6,747.4c1.3,2.1,4.2,4.5,9.5,4.5c3.3,0,8.5-2,8.5-8.2v-2.6c-2.6,2.9-6.7,3.5-11.4,3.5
			c-10.2,0-17.3-8.2-17.3-18.4s7.1-18.5,17.3-18.5c4.6,0,8.4,1.5,11.2,4.1h0.2v-3.1h12v35.8c0,11.7-8.6,17.7-20.5,17.7
			c-7.3,0-15.6-1.6-19.3-10.1L600.6,747.4z M610.7,734.4c4.7,0,8.1-3.4,8.1-8.2c0-4.8-3.6-8.2-8.1-8.2c-4.6,0-8.2,3.4-8.2,8.2
			C602.5,731,605.8,734.4,610.7,734.4z"/>
		<path class="st3" d="M638.7,708.8h12v3.7h0.1c2.7-2.7,6.2-4.7,10-4.7c6.4,0,15.3,3.2,15.3,12.9v23h-12v-19.7
			c0-3.5-2.4-6.8-6.3-6.8c-3.6,0-7.1,3.3-7.1,6.8v19.7h-12V708.8z"/>
	</g>
</g>
</svg>
