<?xml version="1.0" encoding="utf-8"?>
<!-- Generator: Adobe Illustrator 21.0.1, SVG Export Plug-In . SVG Version: 6.00 Build 0)  -->
<svg version="1.1" id="Layer_1" xmlns="http://www.w3.org/2000/svg" xmlns:xlink="http://www.w3.org/1999/xlink" x="0px" y="0px"
	 viewBox="0 0 1200 450" style="enable-background:new 0 0 1200 450;" xml:space="preserve">
<style type="text/css">
	.st0{fill:#DF4646;}
	.st1{fill:#4356A6;}
	.st2{fill:#F4EB37;}
	.st3{fill:none;}
	.st4{fill:none;stroke:#000000;stroke-width:5;stroke-miterlimit:10;}
	.st5{fill:#FFFFFF;}
</style>
<g>
	<path d="M253.8,196.4l3.4,6.7c0,0-3.9,3.2-11.4,3.2c-9.8,0-18.8-8-18.8-17.9c0-9.9,8.9-18,18.8-18c7.5,0,11.4,3.2,11.4,3.2
		l-3.4,6.7c0,0-2.8-2.1-6.8-2.1c-7.9,0-11.4,5.5-11.4,10.2c0,4.7,3.5,10.2,11.4,10.2C251.1,198.5,253.8,196.4,253.8,196.4z"/>
	<path d="M275.5,171c6.4,0,11.3,3.5,11.3,10.3c0,5.2-2.9,8.7-7.1,10l11.9,14.3h-10L271,192v13.7h-7.9V171H275.5z"/>
	<g id="XMLID_1_">
		<g>
			<path class="st0" d="M271.9,177.3c3,0,6.5,0.2,6.5,4.5c0,4.3-3.6,4.5-6.5,4.5H271v-9.1H271.9z"/>
		</g>
		<g>
		</g>
	</g>
	<path d="M315.9,177.9H304v6.9h11.4v6.9H304v7h11.9v6.9h-19.8V171h19.8V177.9z"/>
	<path d="M355.2,205.6h-8.5l-2.6-6.9H331l-2.6,6.9h-8.5l14-34.6h7.3L355.2,205.6z"/>
	<g id="XMLID_5_">
		<g>
			<polygon class="st1" points="337.6,181.7 341.4,191.8 333.6,191.8 337.5,181.7 			"/>
		</g>
		<g>
		</g>
	</g>
	<path d="M355.2,171h24.3v6.9h-8.2v27.7h-7.9v-27.7h-8.2V171z"/>
	<path d="M393.3,205.6h-7.9V171h7.9V205.6z"/>
	<path d="M394,171h8.9l8.7,22.7l8.7-22.7h8.9l-14.5,34.6h-6.2L394,171z"/>
	<path d="M453.3,177.9h-11.9v6.9h11.4v6.9h-11.4v7h11.9v6.9h-19.8V171h19.8V177.9z"/>
	<path d="M506.7,205.6h-8.5l-2.6-6.9h-13.2l-2.6,6.9h-8.5l14-34.6h7.3L506.7,205.6z"/>
	<g id="XMLID_9_">
		<g>
			<polygon class="st2" points="489.1,181.7 493,191.8 485.2,191.8 489,181.7 			"/>
		</g>
		<g>
		</g>
	</g>
	<path d="M518.8,205.6h-7.9V171h7.9l13.8,21.5h0.1V171h7.9v34.6h-7.9l-13.8-21.5h-0.1V205.6z"/>
	<path d="M558.6,171c9.5,0,17.4,7.2,17.4,17.3c0,10.1-7.9,17.3-17.4,17.3h-10V171H558.6z"/>
	<g id="XMLID_2_">
		<g>
			<path class="st0" d="M557.6,178.1c5.9,0,9.9,4.5,9.9,10.3c0,5.8-4,10.2-9.9,10.2h-1.2v-20.5H557.6z"/>
		</g>
		<g>
		</g>
	</g>
	<path d="M609.4,171c6.8,0,11.8,3.5,11.8,10.7c0,7.1-5.1,11.1-11.8,11.1h-4.7v12.8h-7.9V171H609.4z"/>
	<g id="XMLID_6_">
		<g>
			<path class="st1" d="M606.9,177.3c3.1,0,6,1.1,6,4.6c0,3.5-2.9,4.6-6,4.6h-2.2v-9.2H606.9z"/>
		</g>
		<g>
		</g>
	</g>
	<path d="M647.5,177.9h-11.9v6.9H647v6.9h-11.4v7h11.9v6.9h-19.8V171h19.8V177.9z"/>
	<path d="M667.3,171c6.4,0,11.3,3.5,11.3,10.3c0,5.2-2.9,8.7-7.1,10l11.9,14.3h-10L662.8,192v13.7h-7.9V171H667.3z"/>
	<g id="XMLID_10_">
		<g>
			<path class="st2" d="M663.7,177.3c3,0,6.5,0.2,6.5,4.5c0,4.3-3.6,4.5-6.5,4.5h-0.9v-9.1H663.7z"/>
		</g>
		<g>
		</g>
	</g>
	<path d="M711.4,173.7l-3.2,6.3c0,0-3.4-2.4-7-2.4c-2.7,0-4.1,1.2-4.1,3.1c0,1.9,3.3,3.3,7.2,5c3.9,1.6,8.1,4.9,8.1,9.4
		c0,8.3-6.3,11.2-13,11.2c-8.1,0-13-4.6-13-4.6l3.9-6.6c0,0,4.6,3.9,8.5,3.9c1.7,0,5-0.2,5-3.4c0-2.5-3.7-3.6-7.8-5.7
		c-4.2-2.1-6.6-5.3-6.6-8.9c0-6.5,5.7-10.6,11.3-10.6C707,170.4,711.4,173.7,711.4,173.7z"/>
	<path d="M734.9,170.4c9.6,0,17.4,7.8,17.4,17.9c0,10.1-7.5,18-17.4,18c-10.2,0-17.4-7.8-17.4-18
		C717.5,178.2,725.4,170.4,734.9,170.4z"/>
	<g id="XMLID_3_">
		<g>
			<path class="st0" d="M743.8,188.3c0,5.2-2.6,10.3-8.9,10.3c-6.5,0-8.9-5.2-8.9-10.3s2.8-10.3,8.9-10.3
				C741.1,178,743.8,183.1,743.8,188.3z"/>
		</g>
		<g>
		</g>
	</g>
	<path d="M766.6,205.6h-7.9V171h7.9l13.8,21.5h0.1V171h7.9v34.6h-7.9l-13.8-21.5h-0.1V205.6z"/>
	<path d="M827.9,205.6h-8.5l-2.6-6.9h-13.2l-2.6,6.9h-8.5l14-34.6h7.3L827.9,205.6z"/>
	<g id="XMLID_7_">
		<g>
			<polygon class="st1" points="810.3,181.7 814.2,191.8 806.4,191.8 810.2,181.7 			"/>
		</g>
		<g>
		</g>
	</g>
	<path d="M840,198.7H852v6.9h-19.8V171h7.9V198.7z"/>
	<path d="M866.7,205.6h-7.9V171h7.9V205.6z"/>
	<path d="M886.6,198.7h16v6.9h-29.8l17.1-27.7h-14.7V171h28.5L886.6,198.7z"/>
	<path d="M929.6,177.9h-11.9v6.9h11.4v6.9h-11.4v7h11.9v6.9h-19.8V171h19.8V177.9z"/>
	<path d="M947.1,171c9.5,0,17.4,7.2,17.4,17.3c0,10.1-7.9,17.3-17.4,17.3h-10V171H947.1z"/>
	<g id="XMLID_12_">
		<g>
			<path class="st2" d="M946.2,178.1c5.9,0,9.9,4.5,9.9,10.3c0,5.8-4,10.2-9.9,10.2H945v-20.5H946.2z"/>
		</g>
		<g>
		</g>
	</g>
</g>
<rect class="st3" width="1200" height="450"/>
<g>
	<path d="M224.9,218.5h13.9l13.7,35.6l13.7-35.6h13.9l-22.7,54.2h-9.7L224.9,218.5z"/>
	<path d="M299.1,272.7h-12.3v-54.2h12.3V272.7z"/>
	<path d="M347,222.7l-5,9.8c0,0-5.4-3.7-11-3.7c-4.2,0-6.4,1.9-6.4,4.9c0,3,5.1,5.2,11.3,7.8c6,2.6,12.7,7.7,12.7,14.8
		c0,12.9-9.8,17.5-20.4,17.5c-12.7,0-20.3-7.2-20.3-7.2l6.2-10.4c0,0,7.2,6.1,13.3,6.1c2.7,0,7.8-0.3,7.8-5.3
		c0-3.9-5.8-5.7-12.2-8.9c-6.5-3.2-10.3-8.3-10.3-13.9c0-10.1,8.9-16.5,17.7-16.5C340.1,217.6,347,222.7,347,222.7z"/>
	<path d="M400.6,253.5c0,13.4-7.4,20.2-21.1,20.2s-21.1-6.8-21.1-20.2v-34.9h12.3v31.3c0,9.1,2.8,11.7,8.8,11.7s8.8-2.6,8.8-11.7
		v-31.3h12.3V253.5z"/>
	<path d="M461.7,272.7h-13.3l-4-10.8h-20.6l-4,10.8h-13.3l21.9-54.2h11.4L461.7,272.7z"/>
	<g id="XMLID_4_">
		<g>
			<polygon class="st0" points="434.2,235.3 440.3,251 428.1,251 434.1,235.3 			"/>
		</g>
		<g>
		</g>
	</g>
	<path d="M480.8,261.9h18.6v10.8h-31v-54.2h12.3V261.9z"/>
	<path d="M568.1,222.7l-5,9.8c0,0-5.4-3.7-11-3.7c-4.2,0-6.4,1.9-6.4,4.9c0,3,5.1,5.2,11.3,7.8c6,2.6,12.7,7.7,12.7,14.8
		c0,12.9-9.8,17.5-20.4,17.5c-12.7,0-20.3-7.2-20.3-7.2l6.2-10.4c0,0,7.2,6.1,13.3,6.1c2.7,0,7.8-0.3,7.8-5.3
		c0-3.9-5.8-5.7-12.2-8.9c-6.5-3.2-10.3-8.3-10.3-13.9c0-10.1,8.9-16.5,17.7-16.5C561.1,217.6,568.1,222.7,568.1,222.7z"/>
	<path d="M604.9,217.6c15,0,27.2,12.2,27.2,28c0,15.8-11.7,28.1-27.2,28.1c-16,0-27.3-12.3-27.3-28.1
		C577.6,229.8,590,217.6,604.9,217.6z"/>
	<g id="XMLID_8_">
		<g>
			<path class="st1" d="M618.8,245.6c0,8.1-4.1,16.2-13.9,16.2c-10.1,0-14-8.1-14-16.2c0-8.1,4.5-16.1,14-16.1
				C614.5,229.4,618.8,237.5,618.8,245.6z"/>
		</g>
		<g>
		</g>
	</g>
	<path d="M654.5,261.9h18.6v10.8h-31v-54.2h12.3V261.9z"/>
	<path d="M725.5,253.5c0,13.4-7.4,20.2-21.1,20.2s-21.1-6.8-21.1-20.2v-34.9h12.3v31.3c0,9.1,2.8,11.7,8.8,11.7
		c6,0,8.8-2.6,8.8-11.7v-31.3h12.3V253.5z"/>
	<path d="M730.7,218.5h38.1v10.8h-12.9v43.3h-12.3v-43.3h-12.9V218.5z"/>
	<path d="M790.2,272.7h-12.3v-54.2h12.3V272.7z"/>
	<path d="M827.5,217.6c15,0,27.2,12.2,27.2,28c0,15.8-11.7,28.1-27.2,28.1c-16,0-27.3-12.3-27.3-28.1
		C800.2,229.8,812.6,217.6,827.5,217.6z"/>
	<g id="XMLID_11_">
		<g>
			<path class="st2" d="M841.5,245.6c0,8.1-4.1,16.2-13.9,16.2c-10.1,0-14-8.1-14-16.2c0-8.1,4.5-16.1,14-16.1
				C837.1,229.4,841.5,237.5,841.5,245.6z"/>
		</g>
		<g>
		</g>
	</g>
	<path d="M877.2,272.7h-12.3v-54.2h12.3l21.5,33.6h0.1v-33.6h12.3v54.2h-12.3l-21.5-33.6h-0.1V272.7z"/>
	<path d="M959.1,222.7l-5,9.8c0,0-5.4-3.7-11-3.7c-4.2,0-6.4,1.9-6.4,4.9c0,3,5.1,5.2,11.3,7.8c6,2.6,12.7,7.7,12.7,14.8
		c0,12.9-9.8,17.5-20.4,17.5c-12.7,0-20.3-7.2-20.3-7.2l6.2-10.4c0,0,7.2,6.1,13.3,6.1c2.7,0,7.8-0.3,7.8-5.3
		c0-3.9-5.8-5.7-12.2-8.9c-6.5-3.2-10.3-8.3-10.3-13.9c0-10.1,8.9-16.5,17.7-16.5C952.1,217.6,959.1,222.7,959.1,222.7z"/>
</g>
<g>
	<g>
		<polyline class="st4" points="590.9,423.8 590.9,291.7 215.6,291.7 215.6,146.1 590.9,146.1 590.9,0 		"/>
		<g>
			<g>
				<circle class="st5" cx="590.9" cy="422.7" r="18.8"/>
				<path d="M612.2,422.7c0-11.7-9.6-21.3-21.3-21.3c-11.7,0-21.3,9.6-21.3,21.3c0,11.7,9.6,21.3,21.3,21.3
					C602.7,444,612.2,434.4,612.2,422.7C612.2,411,612.2,434.4,612.2,422.7z M574.6,422.7c0-9,7.3-16.3,16.3-16.3
					s16.3,7.3,16.3,16.3c0,9-7.3,16.3-16.3,16.3S574.6,431.7,574.6,422.7C574.6,413.7,574.6,431.7,574.6,422.7z"/>
			</g>
		</g>
	</g>
</g>
</svg>
