<?xml version="1.0" encoding="utf-8"?>
<!-- Generator: Adobe Illustrator 21.0.1, SVG Export Plug-In . SVG Version: 6.00 Build 0)  -->
<svg version="1.1" id="Layer_1" xmlns="http://www.w3.org/2000/svg" xmlns:xlink="http://www.w3.org/1999/xlink" x="0px" y="0px"
	 viewBox="0 0 589.8 671.7" style="enable-background:new 0 0 589.8 671.7;" xml:space="preserve">
<style type="text/css">
	.st0{fill:#FFFEF8;stroke:#000000;stroke-width:2;stroke-miterlimit:10;}
	.st1{fill:#FDFEFF;}
	.st2{fill:none;stroke:#231F20;stroke-width:0.6153;stroke-miterlimit:10;}
	.st3{fill:none;stroke:#231F20;stroke-width:0.1538;stroke-miterlimit:10;}
	.st4{fill:#3146AD;stroke:#231F20;stroke-width:0.6153;stroke-miterlimit:10;}
	.st5{fill:#231F20;}
</style>
<circle class="st0" cx="294.9" cy="303.4" r="294.9"/>
<g>
	<path class="st1" d="M119.6,657.7h-13.3v-58.6h13.3V657.7z"/>
	<path class="st1" d="M128.1,596.7h12.6v61.1h-12.6V596.7z"/>
	<path class="st1" d="M149.2,596.7h12.6v61.1h-12.6V596.7z"/>
	<path class="st1" d="M182.2,638.6c0,7.2,1.9,9.9,7.2,9.9s7.2-2.8,7.2-9.9v-17.3h12.6v20.4c0,12.2-6.1,17.1-19.7,17.1
		s-19.7-4.9-19.7-17.1v-20.4h12.6v17.3H182.2z"/>
	<path class="st1" d="M244.6,623.1l-4.1,8.2c0,0-4.3-2.3-8.1-2.3c-2.8,0-3.9,0.5-3.9,2.2c0,1.9,2.6,2.5,5.7,3.5
		c4.8,1.5,11.1,4.2,11.1,11.6c0,10.7-9.8,12.4-17.3,12.4c-8.8,0-14.1-4.9-14.1-4.9l5.1-8.6c0,0,5,4.2,9,4.2c1.8,0,3.9-0.2,3.9-2.6
		c0-2.6-4-2.8-8.1-5c-3.7-1.9-7.4-4.5-7.4-9.9c0-7.5,6.3-11.7,15.9-11.7C239.5,620.2,244.6,623.1,244.6,623.1z"/>
	<path class="st1" d="M253,607.7h12.6v13.6h7.7v9.6h-7.7v11.6c0,3.4,0.9,5,2.8,5c1.6,0,3.1-1.1,3.1-1.1l3.1,10.2c0,0-4,2.3-9.2,2.3
		c-10,0-12.4-7.5-12.4-13.9v-14h-5.3v-9.6h5.3V607.7z"/>
	<path class="st1" d="M278.9,621.3h12.6v5.3h0.1c0,0,4-6.3,11.1-6.3c4.7,0,8,2.3,8,2.3l-5.3,10.7c0,0-2.3-2-6.5-2
		c-6.5,0-7.5,6.5-7.5,7.4v19.2h-12.6L278.9,621.3L278.9,621.3z"/>
	<path class="st1" d="M329.2,620.2c4.9,0,8.9,1.6,11.9,4.5v-3.5h12.6v36.4h-12.4v-4.1h-0.1c-2.7,3-7,5.2-11.9,5.2
		c-10.6,0-18.1-8.6-18.1-19.2S318.5,620.2,329.2,620.2z M333,648.1c4.9,0,8.4-3.5,8.4-8.5s-3.8-8.6-8.4-8.6c-4.8,0-8.5,3.5-8.5,8.6
		C324.4,644.5,327.8,648.1,333,648.1z"/>
	<path class="st1" d="M363.8,607.7h12.6v13.6h7.7v9.6h-7.7v11.6c0,3.4,0.9,5,2.8,5c1.6,0,3.1-1.1,3.1-1.1l3.1,10.2
		c0,0-4,2.3-9.2,2.3c-10,0-12.4-7.5-12.4-13.9v-14h-5.3v-9.6h5.3V607.7z"/>
	<path class="st1" d="M403.7,606.2c0,4.1-3.3,7.5-7.5,7.5s-7.5-3.3-7.5-7.5s3.3-7.5,7.5-7.5S403.7,602.1,403.7,606.2z M389.8,657.7
		h12.6v-36.4h-12.6V657.7z"/>
	<path class="st1" d="M430.5,620.2c12.1,0,21.7,8,21.7,19.3c0,11.2-9.2,19.2-21.7,19.2c-13.1,0-21.9-8-21.9-19.2
		C408.6,628.2,418.2,620.2,430.5,620.2z M430.4,648.1c4.9,0,8.4-3.5,8.4-8.5s-3.8-8.6-8.4-8.6c-4.8,0-8.5,3.5-8.5,8.6
		C421.9,644.5,425.3,648.1,430.4,648.1z"/>
	<path class="st1" d="M458,621.3h12.6v3.8h0.1c2.8-2.8,6.5-4.9,10.4-4.9c6.7,0,16,3.3,16,13.5v24h-12.6v-20.6c0-3.6-2.5-7.1-6.5-7.1
		c-3.8,0-7.5,3.5-7.5,7.1v20.6H458V621.3z"/>
</g>
<path class="st2" d="M285.8,65.2c0-0.9,4.5-5.8,5.6-7.4c2.1-3,3.9-5.9,5.5-9.2c3.1-6.3,8.5-11,15.6-12.3
	c13.7-2.5,31.3-4.7,37.6,10.9c1.6,3.9,2.8,8.1,4,12c0.8,2.5,2,8.4,3.7,9.7"/>
<path class="st2" d="M295.9,184.3c-8-3.8-16.6-6.5-24.3-11.4c-8.7-5.6-16.7-14.7-21.9-23.9s-8.4-18.1-8.9-28.8
	c-0.3-5.9-0.2-12.5,1.5-18c2.5-8.1,6.6-13.8,12.4-19.9c7.9-8.3,19.1-14.6,30.4-15.8c11.3-1.1,21,0.9,31.4,5.5
	c8.7,3.8,19.5,10.5,28.8,5.6c9.2-4.9,17.9-11.3,27.8-14.8c9.3-3.3,19.9-7.9,27.4,0.6c2.4,2.7,5,5,4.9,8.9c0,2.7-1.1,5.6-1.6,8.3
	c-1,6.7-4,12.7-8.5,17.8c-2.3,2.6-4.9,4.6-6.7,7.5c-2,3-3.9,5.9-6.2,8.6c-1.2,1.4-2.9,4.2-4,4.9"/>
<path class="st2" d="M295.6,215c0.1,0,0.2,0,0.3,0"/>
<path class="st2" d="M295.6,215c2.4-4.7,1.3-13,1.5-18.6c0.4-7.2-1.4-12.9-4.6-19.4c-1.4-2.9-2.5-6.8-4-9.3c-0.1,0.2,0,0.3,0.2,0.2
	c-0.8-2-3.2-3.1-4.9-4.2c-2.5-1.6-4.8-3.5-6.7-5.9c-4.3-5.6-5.8-11.2-5.8-18.2c0-5.9,4-14.6,11.6-10.7c6.1,3.2,8.2,13.2,8.5,19.3
	c0.3,5.7,4.3,18-4.8,17.2"/>
<path class="st2" d="M279,128c-1.1-2.7-1.4-4.5,0.3-6.9c2.1-3,4.7-6,7.4-8.5c3.8-3.5,8-6.8,11.9-10.2c3.9-3.4,8.3-7.7,13.1-9.6
	c7.7-3,16.9-6.2,25.1-6.6c5.4-0.3,12,0.4,17.2,1.3c4.3,0.7,8.2,3.6,10.4,7.2c5,7.8,2.7,15.5,3.1,24.3c2-0.5,4.1,0.2,6.2,0.1
	s4.1-1,6.2-0.3"/>
<path class="st2" d="M277.8,135.4c-3.3,1.5-2.8,7.9-2.5,10.9c0.2,1.6,0,4.2,1.4,5.4c1.6,1.4,3.9-0.2,4.2,2.8"/>
<path class="st2" d="M283,148.6c0.4-2.2,2.6-5.9,3.7-7.1"/>
<path class="st2" d="M285.2,150.1c5.5,0.8-0.7,4.9-0.6,6.8"/>
<path class="st2" d="M279.2,120.7c5.9,0.3,13.2,0.8,19.7,1.4c3.5,0.3,7.1,0.2,10.7,0.4c3.4,0.2,5.9-0.8,9.2-1.4
	c4.1-0.7,8.8-0.9,12.9-0.1c2.9,0.6,5.7,1.9,8.6,2.5c3.1,0.6,7.7,1.2,10.7,0.4c3.5-0.9,6.7-2.6,10.3-3.4c3.4-0.7,5.8-0.8,9.2-0.3
	c3.4,0.5,6.5-0.6,9.9,0.6c1.8,0.6,2.4,0.3,2,2.5c-0.3,1.4-1.3,1.9-2,2.9c-1.6,2.3-1.7,5.7-2.2,8.3c-0.6,3.2-1.7,5.4-5.1,6.5
	c-2.9,0.9-6.8,0.9-9.8,1.2c-2.9,0.3-7.6,0.1-9.5-2.5c-1.7-2.4-1.2-5.8-2.2-8.5c-2-5.3-6.4-0.9-7.9,2.3c-2,4.1-3.1,7-7,9.7
	c-4,2.8-9.4,2.6-14,1.6c-2-0.4-6.5-1.7-7.6-3.1c-0.7-0.9-1.1-3.2-1.2-4.4c-0.3-2,0.1-4,0-6c-1.4-1.1-1.7-3-3.8-3.7
	c-3-1.1-6.5-0.1-9.6-0.8c-4.6-1-9.6-0.3-14.3-0.8c-2.4-0.2-4.9-0.9-7.5-0.8c-0.1-0.4-0.1-0.8,0-1.3"/>
<path class="st2" d="M319.6,126.2c-3.6,1.1-3.7,9.8-2.1,12.3c2.3,3.8,8.6,3.2,12.6,3.3c6.1,0.1,8.7-2.7,10.7-8.2
	c2.1-5.8-1.5-8.1-6.6-8.8c-2.3-0.4-4.8-1-7.3-1c-1.2,0-3.5-0.1-4.7,0.2C321.3,124.2,320.2,125.2,319.6,126.2z"/>
<path class="st2" d="M356.1,126.9c-1,3.4-2.9,9.4,1.3,11.9c1.7,1,4.1,0.3,5.9,0.3c2.2-0.1,4.5,0.1,6.7-0.2c5-0.7,5.2-4.4,5.6-8.8
	c0.5-5.2-3.3-6.4-7.9-6.2C363.4,124,358.8,124.5,356.1,126.9z"/>
<path class="st2" d="M294.6,106.1c0-0.1,0-0.3,0-0.4c-0.1,2.8,0.4,6.1,0.6,8.9c0.2,2-0.5,5,0.3,6.8"/>
<path class="st2" d="M295.5,126c1,3.2,1.8,6.5,2.4,9.8c0.2,1.4,0.9,2.8-0.4,3.7c-0.9,0.7-2.5,0.6-3.5,0.9c-1.1,0.3-2.5,0.8-3.4,1.4"
	/>
<path class="st2" d="M293.8,178.6c1.7,3.7,5.1,6.5,8,9.3c5.1,5,11.6,7.4,18.1,10.2c1.6,0.7,3.4,0.7,5.1,1.3c0.9,0.3,1.8,0.9,2.7,1.2
	c3.1,1.1,6.6,0.6,9.8,0.6c3.5,0,6.6-0.6,9.9-1.2c2-0.3,4.2-0.5,5.6-1.9c2.8-2.7,3.8-9.3,2.6-12.9"/>
<path class="st2" d="M356.1,191.5c0.7-0.1,2.2-2.1,2.7-2.8c1.4-1.6,2.3-3.7,3.4-5.5c2.1-3.8,4.2-7.4,5.3-11.6
	c0.8-3.2,2.1-6.3,2.7-9.5c0.8-4.1,0.4-8.1,0.4-12.3c0-1.6-0.1-3.1-0.2-4.7c0-1.1-0.7-2.5-0.5-3.3"/>
<path class="st2" d="M369.3,138.6c1.4-2.3,1.5-4.4,1.1-6.9c-0.3-2.1,1.8-5.7,0.5-7.4"/>
<path class="st2" d="M340.1,144.6c-3.2,1-4.3,4.9-3.5,8c0.5,2,1.5,2.7,3.5,3.2s3.2,1.2,4.9,2.5c2.7,2.2,7.9,3.5,10.8,0.6
	c1.5-1.5,1.8-3.4,1.5-5.2c-0.2-1.7-0.1-3.5-0.5-5.2c-0.3-1.7-1.1-3.1-1.8-4.7c-0.6-1.5-0.8-3.1-1.4-4.4"/>
<path class="st2" d="M344.5,148.9c1-0.2,1.7-0.1,2.5,0.5"/>
<path class="st2" d="M326.9,151.7c-1.7,2.9-4.8,5.2-6.8,8c-1.2,1.6-2.5,3.3-2.7,5.2c-0.2,1.8,0.5,3.5,0.4,5.2"/>
<path class="st2" d="M302.4,161.7c0.1-2.5,1.5-5.5,2.5-7.8"/>
<path class="st2" d="M326.9,195.4c-2.7-2.1-6.6-3.9-8-7.2"/>
<path class="st2" d="M356.2,172.1c-0.5-3.7,1.3-7.7,4.5-9.8"/>
<path class="st2" d="M324.9,164c-1.2,2.3,0.4,6.9,1.3,9.2c1.4,3.4,3.1,5.1,6.8,5.6c3.7,0.6,7.2,0,10.8-0.9c3.3-0.8,5-2.2,6.5-5.1
	c1.3-2.4,3.8-6.3,3.8-8.6"/>
<path class="st2" d="M324.9,163.7c2.8,1.9,6.7,1.7,9.9,2.2c2.6,0.4,4.9,0.4,7.5,0.1c2.2-0.2,4.5,0,6.7-0.3c0.9-0.2,4.8-1.3,4.9-1.1"
	/>
<path class="st2" d="M324.4,164.9c0.1,0.8,2.6,5.7,3.4,6.5c1.4,1.3,2.5,2.6,5,2.8c2.2,0.2,4.4,0.2,6.6,0.5c2.3,0.2,5.2,0,7.3-0.9
	c2.4-1,3.8-3.2,5.7-4.8"/>
<path class="st3" d="M324.4,164.9c2.2,0.9,2.8,1.7,6.9,2.3c4.8,0.7,10.1,1.3,16.1,0.5c1-0.1,4.6-1.7,5.5-2.1c0.5-0.2,1.3-0.9,1-1"/>
<path class="st2" d="M295.7,215.2c4.2,5.2,2.6,14.2,8.8,18.5c2.1,1.4,5,2.4,7.5,2.8c1.8,0.3,3.2,0.3,4.4,1.6
	c2.7,2.8,3.5,7.6,4.9,11.1c0.8,1.9,2.9,8.3,5.6,8.4c0.4-3,2-6.1,3.3-8.8c1.5-2.9,2.4-6.1,4-9c2.7-4.9,7.8-8.4,10.3-13.4
	c3.8-7.4,7.7-14.5,9.8-22.6c0.6-2.5,0.5-5.1,0.5-7.7"/>
<path class="st2" d="M297.7,199c-2.6-0.1-4.3,4.1-4.9,6c-1.2,3.7-0.7,7.1-0.8,10.8c-0.1,2.9-0.7,6.1-1.5,9c-0.8,3.1-0.6,6.3-1.4,9.4
	c-0.7,2.9-1.7,5.7-2.6,8.5s-3.7,7.7-3,10.7c1.1,4.5,6.9-3,8.2-4.1c4.8-4.4,15.3-9.1,21.6-5.5c1.8,1,2,2.5,3.3,3.8
	c0.6,0.6,1.7,1.1,2.4,1.7c1.7,1.2,2.5,2.5,3.7,4.2"/>
<path class="st2" d="M327.3,257.2c3-6.4,6.8-12.4,11.7-17.5c1.9-2,4.3-5.9,7.4-5.7c3.8,0.2,6.3,4.6,7.6,7.7
	c1.3,3.1,2.3,7.3,2.3,10.7c3-0.4,3.9-7,4.3-9.4c0.7-4.6,1.2-9.7,1-14.3c-0.2-5.8,0.4-12-0.6-17.7c-0.6-3.3-1.3-7.5-2.6-10.6
	c-0.5-1.1-1-2.3-1.9-3.2s-1.8-0.9-2.8-1.5"/>
<path class="st2" d="M327.6,257.8c-14.6,11.5-21.1,33-18.2,51.1c2.4,15,4.8,31.3,2.9,46.4c-1.3,10.4-2.5,20.4-5,30.6
	c-2.8,11.6-6.9,23-8.3,34.7"/>
<path class="st2" d="M361.2,207.1c11.8,3.1,23.6,6.4,35.7,8.7c8.8,1.7,18.2,4,26.7,7.1c10.4,3.9,17.3,9,22.6,18.8
	c12.7,23.8,22.3,49.1,30,75c2.4,8,1.4,16.3,4.8,24c1.8,4,3.9,7.7,6.1,11.5c2.4,4.2,5.4,8.1,7.9,12.3c1.9,3.2,3.3,6.8,5.4,9.8
	c3.9,5.5,7.9,13.4,5,20.2c-1.6,3.8-5.3,6.8-7.8,10.1c-3,3.9-5.1,8.2-7.7,12.4"/>
<path class="st2" d="M422.4,313.8c2.3,7.9,1.7,15.4,2.2,23.5c0.4,8,3.3,15.7,6.1,23.2c2.7,7.1,6.4,14.8,7.1,22.4
	c0.6,6.2-3.4,8.7-7,13.1c-2.1,2.5-10.5,7.2-4.1,9.9c-3.4-0.5-9.2,4-4.6,6.8c-2.7-0.5-3.8,1.6-5.9,2.6c-1.9,1-4.3,1.1-6,2.3"/>
<path class="st2" d="M401.5,391.3c-0.2,0.2-0.7,0.2-0.3,0.3c3.9-1.2,7.1-3.9,10.6-6.1c4.9-3.1,8-8,12.6-11.4"/>
<path class="st2" d="M408.2,400.6c4.2-1.9,7.7-4.8,11.3-7.6c2.8-2.1,6.2-6.7,9-7.5"/>
<path class="st4" d="M356.9,314.7c1.8,2.7,10.2,4.3,13.8,3.9c6.4-0.7,12.3-1.8,19-1.8c5.7,0,11.2,0.7,16.8,1.2
	c5,0.5,10,0.1,14.8,0.3c0.3,4.1-1.1,8.9-1.8,13.1c-1,6.8-1,13.6-1.9,20.3c-0.8,6-1.4,11.8-2.9,17.6c-0.9,3.4-0.9,6.8-2.8,9.8
	c-4-0.5-9.4,2-13.9,2c-3.9,0-7.7-0.1-11.4,0.5c-6.4,1.2-11.6,0.1-18.1-0.9c-2.4-0.4-8.4-1.1-10.3-2.6c-2.3-1.9-0.9-6.3-0.9-9.2
	c0.1-10,0.9-20,0.6-30.1c-0.2-5.1-0.5-10.1-0.3-15.1C357.9,321.9,356.9,315.2,356.9,314.7z"/>
<path class="st2" d="M391.6,330.4c-3.4-3.2-6.9,4.4-2.5,6.1c3.8,1.5,6.3-5.3,1.5-5.5"/>
<path class="st2" d="M390.4,333.2c-0.2,0.1-0.6,0-0.9,0c0.4,1.3,1.2,1.5,2.1,0.6c-0.1-0.4-0.4-0.7-0.6-0.9"/>
<path class="st2" d="M379.9,317.8c0-3.6,0.2-7.1,0.4-10.7c5.9-0.3,11.4,1.2,17.1,1.2c0.2,2.9,0.4,6.9,0.4,9.2"/>
<path class="st2" d="M392.2,307.7c-0.1-1.3,0.8-4.2,1-6.1c2.5-0.2,5-0.7,7.3,0.3c0.3,4.5-0.6,11.3,0.1,15"/>
<path class="st2" d="M405.2,316.9c-0.4,0.2-0.7,0-0.9,0.5c0.6-4.2,2.7-8.6,4-12.7c0.3-1.1,1-4.2,2-4.7c1.7-0.9,3.8,0.7,3.8,2.4
	c-1.7,0.3-3.9-0.5-4.2-2.4c6.4-2.3,4.6,3.7,3.6,7.1c-0.9,3.1-3.3,9-3.4,10.6"/>
<path class="st2" d="M322.4,275c-0.9,1-2.7,1.1-2.8,3.1c0,2,2.4,3.3,4.2,2.9c4.9-1,0.6-5.2-2.6-4.5"/>
<path class="st2" d="M320.5,314.7c-4.7,1.3-1.3,7.2,2.8,5.9c4.1-1.4,0.7-5.9-2.2-4.6"/>
<path class="st2" d="M244.3,323.3c-0.6,0-1.3,0.4-1.8,0.7c0.7,4.2,0.4,8.9,1.4,13.1c0.9,4.1,2,7.7,2.2,12c0.2,5.1,1.3,10.1,1.5,15.1
	c0.2,4.2-0.5,8.4-0.3,12.6c0.2,3,0.9,6.7,3.1,8.9c2.9,2.8,7.1,2.3,10.8,3.1c6.1,1.5,13.8,5.8,19.8,2.9c3.6-1.7,6.7-4.3,10.1-6.3
	c2.1-1.2,6.5-1.7,7.9-3.6c1.7-2.4,0.8-9.4,0.9-12.2c0.2-5.5,0.4-10.9,0.7-16.4c0.5-9.1,0.5-18.7-0.3-27.8c-0.2-2.6,0.4-3.7-2.2-4.7
	c-3.2-1.1-8.2-0.6-11.5-0.2c-9.8,1.2-19.5,3.6-29.5,3.1c-3.3-0.2-13-1.5-14.7,0.3"/>
<path class="st2" d="M246.1,341.2c-0.6-0.1-1.2-0.2-1.8-0.2c7.9,4.6,15,5.3,23.9,5.8c4.7,0.2,7-0.1,11.5-2c3.2-1.4,6.1-2.1,9.6-2.9
	c3.2-0.7,6.5-1,9.5-1.9c-0.2-0.2-0.4-0.4-0.5-0.6"/>
<path class="st2" d="M266.7,338.1c-1.8,2.8-1.8,7.9,3.5,6.5c4.7-1.3,1.6-7.9-2.2-6.2"/>
<path class="st2" d="M357.5,314.4c-1.8-8.4,11.2-11.7,16.8-14.4c4.5-2.2,9.7-6.4,15-6.5c4.1-0.1,8.8,3.5,12.2,5.6
	c2,1.3,4.4,3.3,5.5,4.8"/>
<path class="st2" d="M412.2,309.5c2.8,2.1,5.6,7.2,8,8.3"/>
<path class="st2" d="M300.2,254.1c0.8,5.7,6.2,10.6,6.5,16.3"/>
<path class="st2" d="M292.6,300.6c0.2-3.4-1.1-7-1.4-10.4c-0.4-4.6,1.5-14.4-0.5-17.3"/>
<path class="st2" d="M277.5,288.6c0-4.8,2.6-10.5,1.8-14.8"/>
<path class="st2" d="M262.4,312.6c4.6-2.6,6.7-15.1,7.7-20.3c0.8-4.1,1.2-8.3,1.9-12.4c0.5-2.8,3.9-12.1,3-13.4"/>
<path class="st2" d="M288.9,222.1c-3.2,1.3-6.8,5.8-8.9,9.3c-3.9,6.6-8.1,12.8-10.5,20.2c-1.4,4.2-2,8.4-3.9,12.4
	c-2.2,4.6-4.4,9.1-6.5,13.8c-1.7,3.9-2.6,8.1-4.4,12c-1,2.1-2.7,3.9-3.7,6c-0.4,0.8-0.7,3.8-1,2.1"/>
<path class="st2" d="M225.2,261.8c2-2.1,5-3.6,7.4-5.4c3.1-2.3,6.2-4.9,9.5-6.8c3.7-2.1,7.9-2.8,11.7-4.7c3.1-1.5,6-3.4,9-5
	c5.6-2.8,10.7-5.9,15.9-9.3c3.2-2.1,6.6-5.7,9.2-7.3"/>
<path class="st2" d="M224.9,261.8c-1.7,4.4-2,9.2-3.7,13.5c-1.5,3.7-4.3,7-6.6,10.2c-3.4,4.7-7.4,9.1-8.7,14.9
	c-1.3,5.9-4.3,8.8-7.1,14"/>
<path class="st2" d="M230.1,321.2c0.7-2.2,0.1-4.7,0.3-7c0.3-4.2,2.1-8.3,1.6-12.6c-0.7-5.5-3.5-10.9-5.9-15.7"/>
<path class="st2" d="M231,269.8c2.3,2.5,4.5,4.6,5.8,8.1c1.4,3.6,1.1,7.4,2.2,11"/>
<path class="st2" d="M240.9,266.1c-0.6-1.6,1.2-6.6,3.1-7.7"/>
<path class="st2" d="M249.2,261.2c0,9.2-1.5,18.2-1.5,27.4"/>
<path class="st2" d="M334.4,271.7c-6.6,8.3-8.3,23.6-8.3,33.9c0,4.6,0.7,8.8,1.6,13.2c1.2,5.9,1.9,10.9,2.4,16.9
	c0.8,9.8,2,20.1,1.1,29.9c-1.2,12.8-5.2,25.7-9.9,37.7c-2.9,7.4-4.8,15.4-6.8,23c-1.3,5.1-1.1,11-0.3,16.1"/>
<path class="st2" d="M308.2,431.6c-2.7-0.4-5.1,6.7-1.2,7.9c4.9,1.5,5.1-5.2,1.2-6.9"/>
<path class="st2" d="M324.2,357.8c-2.7-2-7,3.2-3.3,4.9c4,1.8,5.9-4.9,2.1-4.6"/>
<path class="st2" d="M312.9,396.3c-2.8-0.2-2.8,3.3-1.2,4.8c4,3.9,7.4-3.7,4-3.6"/>
<path class="st2" d="M326.7,411c2.5-4.1,9.3-5.9,13.2-8.6c5.4-3.7,10.7-7.7,16.1-11.4"/>
<path class="st2" d="M335.9,344.9c1.6-3.4,3.6-8.7,6.5-11.1"/>
<path class="st2" d="M335.3,317.2c2.2-2.6,2-6.1,2.2-9.4c0.3-4.6,0.7-11.8,3.1-15.5"/>
<path class="st2" d="M406.7,234.1c-4.4,6.7-9.1,14.8-12.6,22.8"/>
<path class="st2" d="M395.6,290.7c0.7-1.5,0.9-2.9,1.3-4.5c0.8-3,1.7-6,2.9-8.9c1-2.6,3.4-5.8,3.2-8.8"/>
<path class="st2" d="M416.8,259.7c0.1-0.5-0.1-0.7,0.2-1.1c0.2,3.1-0.8,6.5-1.2,9.6c-0.5,4-0.3,9.6-2.1,13.1"/>
<path class="st2" d="M426.7,288.9c5.2-13.6,3.8-29.6,8.6-43.4"/>
<path class="st2" d="M442.7,247c0,5.4-0.7,11.9-0.9,16.3"/>
<path class="st2" d="M433.5,325.8c-0.1,0.4,0.1,0.7,0.3,0.9"/>
<path class="st2" d="M434.4,331c1.3-1.7,1.8-3.9,2.7-5.9c2.3-4.7,4.7-9.2,6.5-14c3.2-8.3,5.8-17.3,6.8-26.2"/>
<path class="st2" d="M440.5,368c8.5-6.7,23.3-3,33.2-1.5"/>
<path class="st2" d="M480.8,371.6c1.1,0.8,3,0.7,4.3,1.5"/>
<path class="st2" d="M499.9,385.8c-2.7-1.5-6-4.6-8.8-5.3c-6.2-1.4-5.2,11.4-7.5,15.1"/>
<path class="st2" d="M462.1,393.5c1.2-1.1,1.8-2.8,3.1-4"/>
<path class="st2" d="M449.8,385.2c-0.4-0.3-0.8-0.6-1.1-0.9c9.2,0.1,18.1-0.9,27-3.1"/>
<path class="st2" d="M435.3,404.3c2.4,1,8.8,4.1,9.8,4"/>
<path class="st2" d="M430.7,414.4c4.2-0.3,10.5,2.9,12.3,5.2"/>
<path class="st2" d="M447.3,439.3c3-2.3,7.9-2.6,11.2-5.1c1.7-1.3,8.6-9.3,8.5-9.4"/>
<path class="st2" d="M473.1,404.9c-0.3,0.2-0.4,0.6-0.3,0.9"/>
<path class="st2" d="M472.2,407.3c1.4,2.2,2.7,6,2.5,8.6"/>
<path class="st2" d="M396.2,469.8c8.7,4.7,12.8-3.5,20.3-7.1c4.5-2.2,8.5,0.1,12.9,0.6s9.6,0.4,13.8,0.1c4-0.3,5.4-2.5,8-5.2
	c3.7-3.8,8-7,11.1-11.3c2.5-3.4,4-6.5,7.7-8.8c3.9-2.4,7.4-4.4,10.8-7.6c2.7-2.6,5.3-5.3,7.2-8.5c1.2-2,1.4-4.3,2.6-6.2"/>
<path class="st2" d="M411.6,417.2c-3.6,1-4.8,2.9-7.1,6c-2,2.6-4.7,4.6-7.2,6.8c3.5,2.8,7.9,4.2,10.8,7.6s5.1,7.3,5.4,11.8
	c0.2,2.8,0.4,6.5-1,8.8c-1.8,3-5.6,4.2-8.5,6.1c-2.2,1.4-5.3,4.7-7.7,5.4"/>
<path class="st2" d="M416.5,427c3.4,3.2,9.8,7.6,8.9,12.6"/>
<path class="st2" d="M435.3,453.8c3.3-4.7,1.9-12,0.6-17.2"/>
<path class="st2" d="M398.1,430.1c-4.6-0.2-13.7-6.5-17.8-2.6c-2.3,2.2-1.6,7.2-0.2,9.5c2,3.3,4.6,3.9,8.2,4.5
	c4.4,0.7,6.7,1.4,10.1,4.3"/>
<path class="st2" d="M387.9,440.9c-1.6,3.5-1.8,6.8-1.8,10.8c0,3.4,1.7,7.5-0.9,9.9c-2.9,2.8-8.7,2.8-12.4,3.9
	c-3.3,1-5.5,2.3-8.6,0.3c-4.9-3.3-10.3-12.6-17.2-10.9c-9.5,2.3,2.6,10.5,5.2,13.8c2.4,3,4.7,6.4,7.8,8.8c4.3,3.4,7.7-0.1,11.6,0.4"
	/>
<path class="st2" d="M343.9,459.3c-3.5-3.6-9.1-8.9-14.9-6.1c-4.2,2-0.2,5.1,1.7,6.9c3.4,3.2,4.9,7.7,8,11.2
	c3.9,4.4,9.8,13.6,15.8,14.7c8.3,1.5,17.8-3.8,24.8-7.5c5.7-3,12.1-8.3,18.1-9.6"/>
<path class="st2" d="M332.5,462.1c-4.6,2.7,6.6,18.7,9.2,21.7c4.5,5.1,11.5,4.3,17.5,2.6"/>
<path class="st2" d="M337.8,452.3c1-3.4,1.5-6.4-0.7-9.5s-4.8-6.1-7.1-9.3c-3.1-4.4-2-5.4,2.4-8.2c6.1-3.9,12.3-9,19.1-11.9
	c8.2-3.5,14.4,0.2,22.2,1.3c2.3-6.4-2.7-15.8,1.4-21.8c4.4-6.4,9.2,1.2,12.8,3.7c3.2,2.2,7.3,2.2,10.5,4.2c2.8,1.7,5.5,5.6,7.1,8.4
	c1.3,2.2,2.9,8.6,1.9,9.6"/>
<path class="st2" d="M353.2,412.3c-0.3,0.2-0.4,0.4-0.8,0.3c8.1-3.6,16.7-12.8,22.4-18.8"/>
<path class="st2" d="M244.9,379.3c-4.5,6.7-2.7,15.4-0.3,22.4c2.2,6.5,8.5,19.5,4.6,25.6"/>
<path class="st2" d="M248.9,396.9c2.2,3.8,5.6,6.4,8.6,9.5c2.7,2.8,4.7,7.2,6.2,9.9"/>
<path class="st2" d="M251.6,430.1c7.8-5.7,12.9-14.5,20-21.2c4.1-3.9,9-6.4,12.8-10.7c2.6-2.9,6.3-5.3,8.7-7.2"/>
<path class="st2" d="M297.8,399.6c1.3-0.7,3.4-3.3,3.7-3.4"/>
<path class="st2" d="M310.7,356.9c-0.1-2.7,0.3-5-0.3-7.7c-0.8-3.4,0-8-1.2-11.1"/>
<path class="st2" d="M248.6,411c-3.8,2.4-7.7,6.1-10.5,9.9c-1.9,2.7-1.6,5.5-2.8,8.3c-0.8,1.8-2.5,3.3-3.4,5
	c-2.3,4.5-0.6,7.2,3.6,9.9c5.4,3.4,8.4,2.4,14.2,0.9c11.1-2.9,23.1-3.3,34.4-3.9c9.9-0.5,19.7,1.6,29.5,1.5c8.1-0.1,16.3,0,23.8,1.9
	"/>
<path class="st2" d="M245.2,379.3c-4.5-1.9-10.7,3.7-12.7,7.2c-3.9,6.9-4.1,16.2-8.6,22.9c-1.9,2.9-5,4.2-8.2,4.9
	c-4.9,1.1-10.1,3-15.1,3.4c-3.9,0.3-7.6-0.6-11.5-0.6c-4,0-9.1,0.4-13-1c-6-2.2-8.9-8.2-10.6-13.9c-2.4-7.9-6.8-14.4-10.7-21.6
	c-3-5.6-3.6-12.1-6.9-17.7c-4.6-7.9-11.2-13.9-14.5-22.7c-2.2-5.9-2.2-10.4-1.2-16.5c0.9-5,1.7-9.8,0.5-14.9
	c-0.8-3.5-2.4-6.8-3.9-10.2c-1-2.2-2.5-8.4-3.8-9.2"/>
<path class="st2" d="M165.8,281.5c0,3.2,5.5,9.7,7.5,13c3,5,7.2,8.6,8.5,14.4c1,4.4,0.8,11.2,3.5,14.7c2.9,3.7,5.6,0.6,7.5-2.6
	c1.8-2.9,3.5-6.8,6.5-8.1"/>
<path class="st2" d="M136.3,297.8c-3.9-0.7-1.8,4.4-0.2,5.7c4.4,3.5,5.5-3.5,2-6c-0.2,0.2-0.4,0.4-0.6,0.6"/>
<path class="st2" d="M136.9,309.5c6.6,2.1,14.5-4.4,20.4-6.6c2.9-1.1,5.8-2,8.7-3.1c1.9-0.7,4.8-2.6,6.3-2.6"/>
<path class="st2" d="M140.9,318.4c0.9,2.7-0.4,5.2-1.2,7.9c-1.3,4.9-1.2,7.2,0.8,12.1"/>
<path class="st2" d="M165.8,357.5c-0.4-1.2-0.2-4.5,0-6.1c0.6-4.5,6-7.4,5.9-11.9c-0.1-3.3-2.5-6.3-2.8-9.8
	c-0.4-4.7,0.3-10.3,2.4-14.3"/>
<path class="st2" d="M163.6,312c0.2-1.5,1.1-3.3,2.2-4.3"/>
<path class="st2" d="M192.6,334.1c5.4,7.8,6.5,17.9,6.8,27c-0.1-0.4-0.2-0.8-0.3-1.2"/>
<path class="st2" d="M195,386.7c0.1-3.4-0.3-6.8-0.9-10.2"/>
<path class="st2" d="M191,393.2c-0.7-2.4-0.1-5.4-0.9-7.7"/>
<path class="st2" d="M169.8,396.9c-0.4-0.2-0.4-0.5-0.9-0.3c1.6,4.8,8.2,8.7,8.5,13.6c-0.5,0.1-0.8-0.3-0.8-1"/>
<path class="st2" d="M198.4,406.1c0.8-4.5,3.2-11,4.9-16c1.9-5.8,2.8-16.6,6.2-20.6"/>
<path class="st2" d="M212.3,359c2.8,3,5.6,7.4,6.9,11.3c1,3.1,4.2,15.3,1.7,17"/>
<path class="st2" d="M235,365.8c-1.6-1.8-4.8-1.5-5.5-4"/>
<path class="st2" d="M218.4,347.6c2.4,1.9,7.8,4.3,10.4,7.1c-0.8-0.5-1.7-1-2.4-1.5"/>
<path class="st2" d="M204.3,329.5c-0.6-2.1,2.4-4.5,3.6-6.1c2.3-3.2,4.1-6.5,4.6-10.6c0.5-3.6,1-7.1,1.4-10.7c0.1-1,0.9-6.5,1.8-5.5
	"/>
<path class="st2" d="M242.7,379.6c2.7-4.8,1.8-12.3,1.8-17.8c0-7.1-0.2-14.7-1.5-21.6"/>
<path class="st2" d="M238.4,316.3c-0.1-8.8-2.1-19.2-3.9-28.6c-1.6-8.2-7.5-14.6-9.6-22.2"/>
<path class="st2" d="M126.4,290.1c-0.3,0.1,0,0.5-0.5,0.3c-1.3-4.3-3.8-8.1-5.3-12.2c2.8-2.3,5.6,2.6,8,3.2c3.6,1.1,6.6-4.3,9-6.6
	c2.9-2.7,7.7-4.7,9.7-8.3c1.3-2.3,0.8-5.2,1-7.8c4.8-1.2,9,11.1,10.8,14.4c2.4,4.3,5,8.5,7.5,12.7c-0.5-0.6-1.1-1.1-1.7-1.6"/>
<path class="st2" d="M79.3,250.7c-0.2,0.3-0.4,0.7-0.5,0.9c-0.4-3.5-1.2-6.1-2.7-9.2c-1.5-3.2-3.2-5.9-2.3-9.5
	c1-4.3,4.7-7.6,7.5-10.6c1.7-1.8,1.6-1.5,2-4c0.3-1.9,0.3-3.8,0.6-5.7c0.5-2.9,1.8-7.5,5.9-6.2c3.6,1.2,2.9,5.9,2.8,8.8
	c-0.3,6.5-0.6,12.6-0.6,19.1c0,3.9,0.9,6.5,2.8,9.9c1.4,2.6,2.2,5.8,3.6,8.1c-0.3-3.1-1-6.6-1.2-9.8c-0.2-4.4,0.6-5.7,4-8.4
	c3.3-2.5,6-5.9,9.3-8.2c3.5-2.4,7.3-1.4,5.6,3.2c-2.4,6.3-7.8,8.7-6.1,16.2c1.8,7.6,8.3,7,15.1,7.1c4.7,0,10.2,0.3,14.6,2.1
	c2.2,0.9,6.7,2.8,7.9,4.9"/>
<path class="st2" d="M83,219.7c0,6.5-0.6,12.3-1.5,18.3c-1.2,7.5,7.1,11.9,8,18"/>
<path class="st2" d="M92.3,221.2c2.1-1.6,5.1-2.7,5.4-5.7c0.3-2.8-2.3-4.4-4.8-2.9"/>
<path class="st2" d="M92.3,232.6c0.7,2.3,4,6.5,5.2,7.1"/>
<path class="st2" d="M96.3,220.6c-0.3-0.3-0.6-0.2-0.6-0.8c1.4,4.5,5.4,7.6,8.6,10.7"/>
<path class="st2" d="M111,237.5c3.9,5,12.9,5.1,18.2,8.3c4.6,2.8,8.9,5.7,13.1,8.7c1.8,1.3,4.7,3,5.2,4.8"/>
<path class="st2" d="M91,269.5c3.1,1.6,6,0.2,9.2,0.3c3.2,0.1,5.8,1.6,8.8,2.7c4.3,1.6,11.9,2.8,14.9,5.9"/>
<path class="st2" d="M102.4,256.9c1.1,2.4,1.1,6.2,4.1,7.9c2.6,1.6,5.9,1.1,8.5,2.8"/>
<path class="st2" d="M92.3,263c0.4,4.4,3.6,5.4,7.1,6.5"/>
<path class="st2" d="M28.3,244.6c-4.9-7.2-3.7-17.8-7-25.7c-1.1-2.7-3.1-4.3,1-4.5c3.9-0.1,9.4,2.9,12.3,5.2
	c7.4,6,13.9,12,19.6,19.6c2,2.7,3.5,5.6,5.2,8.4c2,3.2,3.4,3.1,7.1,3.1c15.4,0,27.8,9.2,25.1,25.3c-0.8,4.6-2.6,8.6-4.7,12.9
	c-0.9,1.8-3.9,6.4-3.6,8.4c0.4,2.3,3.6,4.9,4.3,7.6c1.1,4.2,1,7.8,3,11.7c2.7,5.2,5.1,10.4,8.7,15.1c2.6,3.4,4.5,6.5,5.3,10.7
	c0.6,3.1,2.1,10.9-0.2,13.6c-1.8,2.1-4.7,0.5-7-0.4c-1.1-0.4-2.1-0.8-3.2-1.3c-0.3,6,0.9,12.4,0.6,18.1"/>
<path class="st2" d="M4,253.1c5,9.6,9,18.6,11,29.6c2,7,6,12,9,19c8,22,9,44,11,67c0,1,1,3,1.6,4.5"/>
<path class="st2" d="M29.2,244.9c-8.1-0.5-12.7-8.5-20.4-9.5"/>
<path class="st2" d="M51.4,293.8c3.2,5.8,12.3,16,19.9,14.4c5.9-1.2,9.2-5.2,12.8-10c-5.4,3.8-13.5,8.4-19.7,5
	c-4.7-2.6-9.7-6.3-13.8-9.6C50.6,293.9,50.8,294.1,51.4,293.8z"/>
<path class="st2" d="M31,260.6c-2.1,0.5-5,1-5.2,3.7c-0.2,2.6,2.7,4.7,4.8,4.3c5.8-1,4.4-10.9-1.4-7.7"/>
<path class="st2" d="M28.6,245.2c-0.3-0.1-0.6-0.3-1-0.5c2.5,0.3,4.3,2.2,6.7,3c2.4,0.8,7.5,1.8,9.3,1.8"/>
<path class="st2" d="M95,371.6c-0.3,14.5-0.3,27.7-0.3,42.1c0,4.4,2.2,7.7,3.3,12.1c2.2,9.9,1.1,18.8-2.2,27.6
	c-12.1,9.9-9.9,26.5-10.1,40.9"/>
<path class="st2" d="M37.2,372.3c-0.9,1.7-0.9,3.9-0.9,7.2c1.1,15.5,0,30.9-3.3,46.7"/>
<path class="st2" d="M248.3,445.2c2.5,3.7-2,12.4,1.2,13.9c1.9,0.9,6-0.7,8.3-0.6c2.6,0.1,5.5,1,8,0.6c-0.5-3.1-2.2-5.5-1.5-8.7
	c0.6-2.6,2.6-5.3,4-7.5"/>
<path class="st2" d="M275.3,441.8c-2.7,3.1-5.7,12.2-3,16.6c1.8,3.1,6.2,0.9,9.5,0.9c2.7,0,6.7-0.1,9.2,0.6c0.8-3.2-3.6-19,3.7-17.8
	"/>
<path class="st2" d="M314.1,443.3c4-0.3,3.6,4.5,3.7,7.2c0.1,2.2,1.2,7.7,0.1,9.5c-2.7,4.3-15.4,3.2-20.1,3
	c-2.1-0.1-8.1-0.3-6.8-3.4"/>
<path class="st2" d="M297.2,442.1c-4.3,4.2-3.7,8.1-3.4,14.2c0.2,4.5,0.8,3.3,4.8,3.4c2.6,0.1,5.2,1.3,7.8,1.2
	c2.8,0,6.9-0.2,9.2-1.6c-0.7-3.3-0.7-6.7-1.2-10.1c-0.5-3.5-1.9-4.6-4.6-6.8"/>
<path class="st2" d="M294.1,450.1c2.7,0,9-1.4,10.4,1.2c-3.6,0.4-7.2,0.1-11,0.1"/>
<path class="st2" d="M277.2,449.2c-2.3,1.9,0.8,3,1.2,0.7C277.3,450.1,277.6,449.4,277.2,449.2"/>
<path class="st2" d="M285.8,449.8c-0.4,0.3-0.7,0.4-1,0.9c0.7,0.5,0.4,0.5,1.5,0.6c0.5-0.8-0.1-0.7-0.6-1.2"/>
<path class="st2" d="M317.8,460.3c-0.3-0.9,5.5,0.2,6.9,0.5c2.5,0.5,5,0.7,6.9,0.8"/>
<path class="st2" d="M248.9,458.4c-1.8,7.2-8.4,12.7-12.8,20.4c-1.1,2.2-2.2,5.5-2.2,7.7c-1.1,4.4-3.3,7.7-3.3,12.1
	c-1.1,27.6,5.5,56.3,0.3,83.6"/>
<path class="st2" d="M415.3,462.4c-1.6,13.1,4,26.4,7.3,38.5c4.4,14.3,7.7,28.7,12.1,43c1.1,6.6-2.2,12.1-3,18.7"/>
<path class="st2" d="M403.6,545.2c2.3,2.5,3.6,6,5.2,9c1.2,2.3,4,5.6,3.4,8.3"/>
<path class="st2" d="M297.2,473.8c-0.7,7.6-1.3,15-1.2,22.7c0,4.9,0.1,9.9,0.3,14.8c0.1,2.7,1.4,6.9,0.6,9.2"/>
<path class="st2" d="M251,481.2c0.2-0.4,0.4-0.8,0.6-1.1c0,15.7-0.2,31.4,1.2,47.1c0.8,9.2-1.1,18.3-0.6,27.4c0.3,5.2,1,14.5,1.8,18
	"/>
<path class="st2" d="M321.2,563c5.1,8,6.3,18.2,7.5,27.4"/>
<path class="st2" d="M303.9,573.2c0.5,6,0.3,11.9,0.5,17.9"/>
<path class="st2" d="M411.3,524.9c3.1,3.7,8.1,7.3,10.2,11.1"/>
<path class="st2" d="M403,508.6c1.7,1,4.1,3.1,4.6,4.9"/>
<path class="st2" d="M404.5,488.2c3.1,0.5,6.2,2.2,9.2,3.1"/>
<path class="st2" d="M403.3,487.6c2.2-0.7,4.1-2.6,6.2-3.7"/>
<path class="st2" d="M170.5,558.1c1.3-9.6-0.4-18.9-1.6-28.5c-0.9-7.1,0.3-15.9-3.5-22.2c-3.9-6.5-13.3-8.5-20.1-10.1
	c-9.2-2.1-18.8-3-28.3-2.4c-10,0.7-21,3.7-30.9,1.2"/>
<path class="st2" d="M85.8,488.9c6.6-0.3,9.9,4.8,14.5,7.1"/>
<g>
	<g>
		<path class="st5" d="M60.8,271.4c0,0.1,0,0.2,0,0.3c0,0.5,0.8,0.5,0.8,0c0-0.1,0-0.2,0-0.3C61.6,270.9,60.8,270.9,60.8,271.4
			L60.8,271.4z"/>
	</g>
</g>
<g>
	<g>
		<path class="st5" d="M80.3,287.3c-0.1,0-0.2,0-0.3,0c-0.5,0-0.5,0.8,0,0.8c0.1,0,0.2,0,0.3,0C80.8,288,80.8,287.3,80.3,287.3
			L80.3,287.3z"/>
	</g>
</g>
<g>
	<g>
		<path class="st5" d="M72.8,288c0,0.1,0,0.2,0,0.3c0,0.5,0.8,0.5,0.8,0c0-0.1,0-0.2,0-0.3C73.6,287.5,72.8,287.5,72.8,288L72.8,288
			z"/>
	</g>
</g>
<g>
	<g>
		<path class="st5" d="M62.1,286.2c-0.1-0.1-0.2-0.2-0.3-0.3c-0.4-0.4-0.9,0.2-0.5,0.5c0.1,0.1,0.2,0.2,0.3,0.3
			C61.9,287,62.4,286.5,62.1,286.2L62.1,286.2z"/>
	</g>
</g>
<g>
	<g>
		<path class="st5" d="M67.3,299c-0.1,0-0.2,0-0.3,0c-0.5,0-0.5,0.8,0,0.8c0.1,0,0.2,0,0.3,0C67.8,299.7,67.8,299,67.3,299L67.3,299
			z"/>
	</g>
</g>
<g>
	<g>
		<path class="st5" d="M72.9,298.3c-0.1,0-0.2,0-0.3,0c-0.5,0-0.5,0.8,0,0.8c0.1,0,0.2,0,0.3,0C73.4,299.1,73.4,298.3,72.9,298.3
			L72.9,298.3z"/>
	</g>
</g>
<g>
	<g>
		<path class="st5" d="M80.6,312.2c-0.1,0-0.2,0-0.3,0c-0.5,0-0.5,0.8,0,0.8c0.1,0,0.2,0,0.3,0C81.1,313,81.1,312.2,80.6,312.2
			L80.6,312.2z"/>
	</g>
</g>
<g>
	<g>
		<path class="st5" d="M86.1,326.7c-0.1,0-0.2,0-0.3,0c-0.5,0-0.5,0.8,0,0.8c0.1,0,0.2,0,0.3,0C86.6,327.4,86.6,326.7,86.1,326.7
			L86.1,326.7z"/>
	</g>
</g>
<g>
	<g>
		<path class="st5" d="M87,334c-0.1,0-0.2,0-0.3,0c-0.5,0-0.5,0.8,0,0.8c0.1,0,0.2,0,0.3,0C87.5,334.8,87.5,334,87,334L87,334z"/>
	</g>
</g>
<g>
	<g>
		<path class="st5" d="M78.1,343.6c-0.1,0-0.2,0-0.3,0c-0.5,0-0.5,0.8,0,0.8c0.1,0,0.2,0,0.3,0C78.6,344.3,78.6,343.6,78.1,343.6
			L78.1,343.6z"/>
	</g>
</g>
<g>
	<g>
		<path class="st5" d="M74.5,334.8c-0.1,0.1-0.2,0.2-0.3,0.3c-0.4,0.4,0.2,0.9,0.5,0.5c0.1-0.1,0.2-0.2,0.3-0.3
			C75.4,335,74.8,334.4,74.5,334.8L74.5,334.8z"/>
	</g>
</g>
<g>
	<g>
		<path class="st5" d="M80.5,334.1c0,0.1,0,0.2,0,0.3c0,0.5,0.8,0.5,0.8,0c0-0.1,0-0.2,0-0.3C81.3,333.6,80.5,333.6,80.5,334.1
			L80.5,334.1z"/>
	</g>
</g>
<g>
	<g>
		<path class="st5" d="M73.4,313.8c0,0.1,0,0.2,0,0.3c0,0.5,0.8,0.5,0.8,0c0-0.1,0-0.2,0-0.3C74.2,313.3,73.4,313.3,73.4,313.8
			L73.4,313.8z"/>
	</g>
</g>
<g>
	<g>
		<path class="st5" d="M42.7,300.3c0,0.1,0,0.2,0,0.3c0,0.5,0.8,0.5,0.8,0c0-0.1,0-0.2,0-0.3C43.4,299.8,42.7,299.8,42.7,300.3
			L42.7,300.3z"/>
	</g>
</g>
<g>
	<g>
		<path class="st5" d="M37.2,294.8c0.1,0,0.2,0,0.3,0c0.5,0,0.5-0.8,0-0.8c-0.1,0-0.2,0-0.3,0C36.7,294,36.7,294.8,37.2,294.8
			L37.2,294.8z"/>
	</g>
</g>
<g>
	<g>
		<path class="st5" d="M32.5,288c0,0.1,0,0.2,0,0.3c0,0.5,0.8,0.5,0.8,0c0-0.1,0-0.2,0-0.3C33.3,287.5,32.5,287.5,32.5,288L32.5,288
			z"/>
	</g>
</g>
<g>
	<g>
		<path class="st5" d="M27.3,296.9c0,0.1,0,0.2,0,0.3c0,0.5,0.8,0.5,0.8,0c0-0.1,0-0.2,0-0.3C28,296.4,27.3,296.4,27.3,296.9
			L27.3,296.9z"/>
	</g>
</g>
<g>
	<g>
		<path class="st5" d="M41.2,309c0.1,0,0.2,0,0.3,0c0.5,0,0.5-0.8,0-0.8c-0.1,0-0.2,0-0.3,0C40.7,308.2,40.7,309,41.2,309L41.2,309z
			"/>
	</g>
</g>
<g>
	<g>
		<path class="st5" d="M34.4,318.1c0,0.1,0,0.2,0,0.3c0,0.5,0.8,0.5,0.8,0c0-0.1,0-0.2,0-0.3C35.1,317.6,34.4,317.6,34.4,318.1
			L34.4,318.1z"/>
	</g>
</g>
<g>
	<g>
		<path class="st5" d="M49.2,311.6c-0.1,0-0.2,0-0.3,0c-0.5,0-0.5,0.8,0,0.8c0.1,0,0.2,0,0.3,0C49.7,312.3,49.7,311.6,49.2,311.6
			L49.2,311.6z"/>
	</g>
</g>
<g>
	<g>
		<path class="st5" d="M59,318.8c0.1,0,0.2,0,0.3,0c0.5,0,0.5-0.8,0-0.8c-0.1,0-0.2,0-0.3,0C58.5,318,58.5,318.8,59,318.8L59,318.8z
			"/>
	</g>
</g>
<g>
	<g>
		<path class="st5" d="M64.3,318.5c-0.1,0.1-0.2,0.2-0.3,0.3c-0.4,0.4,0.2,0.9,0.5,0.5c0.1-0.1,0.2-0.2,0.3-0.3
			C65.2,318.7,64.7,318.1,64.3,318.5L64.3,318.5z"/>
	</g>
</g>
<g>
	<g>
		<path class="st5" d="M68,323.3c-0.1,0-0.2,0-0.3,0c-0.5,0-0.5,0.8,0,0.8c0.1,0,0.2,0,0.3,0C68.5,324,68.5,323.3,68,323.3L68,323.3
			z"/>
	</g>
</g>
<g>
	<g>
		<path class="st5" d="M68,330.3c-0.1,0-0.2,0-0.3,0c-0.5,0-0.5,0.8,0,0.8c0.1,0,0.2,0,0.3,0C68.5,331.1,68.5,330.3,68,330.3
			L68,330.3z"/>
	</g>
</g>
<g>
	<g>
		<path class="st5" d="M69.5,337.7c-0.1,0-0.2,0-0.3,0c-0.5,0-0.5,0.8,0,0.8c0.1,0,0.2,0,0.3,0C70,338.5,70,337.7,69.5,337.7
			L69.5,337.7z"/>
	</g>
</g>
<g>
	<g>
		<path class="st5" d="M72.3,344.5c-0.1,0-0.2,0-0.3,0c-0.5,0-0.5,0.8,0,0.8c0.1,0,0.2,0,0.3,0C72.8,345.3,72.8,344.5,72.3,344.5
			L72.3,344.5z"/>
	</g>
</g>
<g>
	<g>
		<path class="st5" d="M86.2,356.6c0-0.1,0-0.2,0-0.3c0-0.5-0.8-0.5-0.8,0c0,0.1,0,0.2,0,0.3C85.4,357.1,86.2,357.1,86.2,356.6
			L86.2,356.6z"/>
	</g>
</g>
<g>
	<g>
		<path class="st5" d="M83,364.6c0,0.1,0,0.2,0,0.3c0,0.5,0.8,0.5,0.8,0c0-0.1,0-0.2,0-0.3C83.7,364.1,83,364.1,83,364.6L83,364.6z"
			/>
	</g>
</g>
<g>
	<g>
		<path class="st5" d="M82.2,360.3c0-0.1,0-0.2,0-0.3c0-0.5-0.8-0.5-0.8,0c0,0.1,0,0.2,0,0.3C81.4,360.8,82.2,360.8,82.2,360.3
			L82.2,360.3z"/>
	</g>
</g>
<g>
	<g>
		<path class="st5" d="M64.8,347c0,0.1,0,0.2,0,0.3c0,0.5,0.8,0.5,0.8,0c0-0.1,0-0.2,0-0.3C65.6,346.5,64.8,346.5,64.8,347L64.8,347
			z"/>
	</g>
</g>
<g>
	<g>
		<path class="st5" d="M64.2,340.6c0,0.1,0,0.2,0,0.3c0,0.5,0.8,0.5,0.8,0c0-0.1,0-0.2,0-0.3C65,340.1,64.2,340.1,64.2,340.6
			L64.2,340.6z"/>
	</g>
</g>
<g>
	<g>
		<path class="st5" d="M44.8,334.1c0,0.1,0,0.2,0,0.3c0,0.5,0.8,0.5,0.8,0c0-0.1,0-0.2,0-0.3C45.6,333.6,44.8,333.6,44.8,334.1
			L44.8,334.1z"/>
	</g>
</g>
<g>
	<g>
		<path class="st5" d="M53.1,330.1c0,0.1,0,0.2,0,0.3c0,0.5,0.8,0.5,0.8,0c0-0.1,0-0.2,0-0.3C53.9,329.6,53.1,329.6,53.1,330.1
			L53.1,330.1z"/>
	</g>
</g>
<g>
	<g>
		<path class="st5" d="M57.1,335.3c-0.1,0-0.2,0-0.3,0c-0.5,0.1-0.3,0.8,0.2,0.7c0.1,0,0.2,0,0.3,0C57.8,336,57.6,335.2,57.1,335.3
			L57.1,335.3z"/>
	</g>
</g>
<g>
	<g>
		<path class="st5" d="M68.2,358.1c0,0.1,0,0.2,0,0.3c0,0.5,0.8,0.5,0.8,0c0-0.1,0-0.2,0-0.3C69,357.6,68.2,357.6,68.2,358.1
			L68.2,358.1z"/>
	</g>
</g>
<g>
	<g>
		<path class="st5" d="M81.1,371.3c0,0.1,0,0.2,0,0.3c0,0.5,0.8,0.5,0.8,0c0-0.1,0-0.2,0-0.3C81.9,370.8,81.1,370.8,81.1,371.3
			L81.1,371.3z"/>
	</g>
</g>
<g>
	<g>
		<path class="st5" d="M88.5,376.9c0,0.1,0,0.2,0,0.3c0,0.5,0.8,0.5,0.8,0c0-0.1,0-0.2,0-0.3C89.3,376.4,88.5,376.4,88.5,376.9
			L88.5,376.9z"/>
	</g>
</g>
<g>
	<g>
		<path class="st5" d="M74.4,381.3c0.5,0,0.5-0.8,0-0.8S73.9,381.3,74.4,381.3L74.4,381.3z"/>
	</g>
</g>
<g>
	<g>
		<path class="st5" d="M78.4,386.5c0.1,0,0.2,0,0.3,0c0.5,0,0.5-0.8,0-0.8c-0.1,0-0.2,0-0.3,0C77.9,385.7,77.9,386.5,78.4,386.5
			L78.4,386.5z"/>
	</g>
</g>
<g>
	<g>
		<path class="st5" d="M89.5,398.4c-0.1,0.1-0.2,0.2-0.3,0.3c-0.4,0.4,0.2,0.9,0.5,0.5c0.1-0.1,0.2-0.2,0.3-0.3
			C90.4,398.6,89.9,398.1,89.5,398.4L89.5,398.4z"/>
	</g>
</g>
<g>
	<g>
		<path class="st5" d="M53.6,400.7L53.6,400.7c0,0.1-0.1,0.2-0.1,0.3c-0.1,0-0.2,0-0.3,0c0-0.1-0.1-0.2-0.1-0.4c0,0,0,0,0,0.1
			c-0.1,0.5,0.6,0.7,0.7,0.2c0.2-0.8-1.1-0.8-1,0C53,401.4,53.7,401.2,53.6,400.7L53.6,400.7z"/>
	</g>
</g>
<g>
	<g>
		<path class="st5" d="M70.7,400.6c0,0.1,0,0.2,0,0.3c0,0.5,0.8,0.5,0.8,0c0-0.1,0-0.2,0-0.3C71.4,400.1,70.7,400.1,70.7,400.6
			L70.7,400.6z"/>
	</g>
</g>
<g>
	<g>
		<path class="st5" d="M71,394.1c0,0.1,0,0.2,0,0.3c0,0.5,0.8,0.5,0.8,0c0-0.1,0-0.2,0-0.3C71.7,393.6,71,393.6,71,394.1L71,394.1z"
			/>
	</g>
</g>
<g>
	<g>
		<path class="st5" d="M55.7,395.1c0.1,0,0.2,0,0.3,0c0.5,0,0.5-0.8,0-0.8c-0.1,0-0.2,0-0.3,0C55.2,394.3,55.2,395.1,55.7,395.1
			L55.7,395.1z"/>
	</g>
</g>
<g>
	<g>
		<path class="st5" d="M42.8,389.5c0-0.1,0-0.2,0-0.3c0-0.5-0.8-0.5-0.8,0c0,0.1,0,0.2,0,0.3C42,390,42.8,390,42.8,389.5L42.8,389.5
			z"/>
	</g>
</g>
<g>
	<g>
		<path class="st5" d="M60.9,390.2c0.1,0,0.2,0,0.3,0c0.5,0,0.5-0.8,0-0.8c-0.1,0-0.2,0-0.3,0C60.4,389.4,60.4,390.2,60.9,390.2
			L60.9,390.2z"/>
	</g>
</g>
<g>
	<g>
		<path class="st5" d="M51.7,384.2c0.1,0.1,0.2,0.2,0.3,0.3c0.4,0.4,0.9-0.2,0.5-0.5c-0.1-0.1-0.2-0.2-0.3-0.3
			C51.9,383.3,51.3,383.9,51.7,384.2L51.7,384.2z"/>
	</g>
</g>
<g>
	<g>
		<path class="st5" d="M39.7,370.8c0.1,0,0.2,0,0.3,0c0.5,0,0.5-0.8,0-0.8c-0.1,0-0.2,0-0.3,0C39.2,370,39.2,370.8,39.7,370.8
			L39.7,370.8z"/>
	</g>
</g>
<g>
	<g>
		<path class="st5" d="M50.7,443.4c0.1,0,0.2,0,0.3,0c0.5,0,0.5-0.8,0-0.8c-0.1,0-0.2,0-0.3,0C50.2,442.6,50.2,443.4,50.7,443.4
			L50.7,443.4z"/>
	</g>
</g>
<g>
	<g>
		<path class="st5" d="M49.3,434.7c0-0.1,0-0.2,0-0.3c0-0.5-0.8-0.5-0.8,0c0,0.1,0,0.2,0,0.3C48.5,435.2,49.3,435.2,49.3,434.7
			L49.3,434.7z"/>
	</g>
</g>
<g>
	<g>
		<path class="st5" d="M43.9,434.1c0,0.1,0,0.2,0,0.3c0,0.5,0.8,0.5,0.8,0c0-0.1,0-0.2,0-0.3C44.7,433.6,43.9,433.6,43.9,434.1
			L43.9,434.1z"/>
	</g>
</g>
<g>
	<g>
		<path class="st5" d="M43,426.1c0,0.1,0,0.2,0,0.3c0,0.5,0.8,0.5,0.8,0c0-0.1,0-0.2,0-0.3C43.7,425.6,43,425.6,43,426.1L43,426.1z"
			/>
	</g>
</g>
<g>
	<g>
		<path class="st5" d="M51.3,427.9c0,0.1,0,0.2,0,0.3c0,0.5,0.8,0.5,0.8,0c0-0.1,0-0.2,0-0.3C52,427.5,51.3,427.5,51.3,427.9
			L51.3,427.9z"/>
	</g>
</g>
<g>
	<g>
		<path class="st5" d="M59,428.9c0.1,0,0.2,0,0.3,0c0.5,0,0.5-0.8,0-0.8c-0.1,0-0.2,0-0.3,0C58.5,428.2,58.5,428.9,59,428.9
			L59,428.9z"/>
	</g>
</g>
<g>
	<g>
		<path class="st5" d="M52,419.9c-0.1,0-0.2,0-0.3,0c-0.5,0-0.5,0.8,0,0.8c0.1,0,0.2,0,0.3,0C52.5,420.6,52.5,419.9,52,419.9
			L52,419.9z"/>
	</g>
</g>
<g>
	<g>
		<path class="st5" d="M43.1,413.5c0.1,0.1,0.2,0.2,0.3,0.3c0.4,0.4,0.9-0.2,0.5-0.5c-0.1-0.1-0.2-0.2-0.3-0.3
			C43.3,412.6,42.7,413.1,43.1,413.5L43.1,413.5z"/>
	</g>
</g>
<g>
	<g>
		<path class="st5" d="M55,406.6c-0.1,0-0.2,0-0.3,0c-0.5,0-0.5,0.8,0,0.8c0.1,0,0.2,0,0.3,0C55.5,407.4,55.5,406.6,55,406.6
			L55,406.6z"/>
	</g>
</g>
<g>
	<g>
		<path class="st5" d="M67.3,415c0,0.1,0,0.2,0,0.3c0,0.5,0.8,0.5,0.8,0c0-0.1,0-0.2,0-0.3C68,414.5,67.3,414.5,67.3,415L67.3,415z"
			/>
	</g>
</g>
<g>
	<g>
		<path class="st5" d="M58.7,405.5c0,0.1,0,0.2,0,0.3c0,0.5,0.8,0.5,0.8,0c0-0.1,0-0.2,0-0.3C59.4,405,58.7,405,58.7,405.5
			L58.7,405.5z"/>
	</g>
</g>
<g>
	<g>
		<path class="st5" d="M81.7,407.9c0,0.1,0,0.2,0,0.3c0,0.5,0.8,0.5,0.8,0c0-0.1,0-0.2,0-0.3C82.5,407.5,81.7,407.5,81.7,407.9
			L81.7,407.9z"/>
	</g>
</g>
<g>
	<g>
		<path class="st5" d="M85.8,407.4c-0.1,0.1-0.2,0.2-0.3,0.3c-0.4,0.4,0.2,0.9,0.5,0.5c0.1-0.1,0.2-0.2,0.3-0.3
			C86.7,407.6,86.2,407,85.8,407.4L85.8,407.4z"/>
	</g>
</g>
<g>
	<g>
		<path class="st5" d="M88.8,417.8c0,0.1,0,0.2,0,0.3c0,0.5,0.8,0.5,0.8,0c0-0.1,0-0.2,0-0.3C89.6,417.3,88.8,417.3,88.8,417.8
			L88.8,417.8z"/>
	</g>
</g>
<g>
	<g>
		<path class="st5" d="M88.2,425.8c0,0.1,0,0.2,0,0.3c0,0.5,0.8,0.5,0.8,0c0-0.1,0-0.2,0-0.3C89,425.3,88.2,425.3,88.2,425.8
			L88.2,425.8z"/>
	</g>
</g>
<g>
	<g>
		<path class="st5" d="M75.4,449.2c0-0.1,0-0.2,0-0.3c0-0.5-0.8-0.5-0.8,0c0,0.1,0,0.2,0,0.3C74.7,449.7,75.4,449.7,75.4,449.2
			L75.4,449.2z"/>
	</g>
</g>
<g>
	<g>
		<path class="st5" d="M64.9,446.6c-0.1,0-0.2,0-0.3,0c-0.5,0-0.5,0.8,0,0.8c0.1,0,0.2,0,0.3,0C65.4,447.4,65.4,446.6,64.9,446.6
			L64.9,446.6z"/>
	</g>
</g>
<g>
	<g>
		<path class="st5" d="M58.4,445.3c0.1,0,0.2,0,0.3,0c0.5,0,0.5-0.8,0-0.8c-0.1,0-0.2,0-0.3,0C57.9,444.5,57.9,445.3,58.4,445.3
			L58.4,445.3z"/>
	</g>
</g>
<g>
	<g>
		<path class="st5" d="M56.7,436.7C56.7,436.6,56.7,436.6,56.7,436.7c0,0-0.1,0.1-0.2,0.2c-0.1,0-0.2,0-0.2-0.1s-0.1-0.2-0.1-0.3
			c0,0,0,0,0,0.1c0.1,0.5,0.8,0.5,0.8,0c-0.1-0.5-0.9-0.7-1-0.1C55.9,436.9,56.6,437.1,56.7,436.7L56.7,436.7z"/>
	</g>
</g>
<g>
	<g>
		<path class="st5" d="M66.7,439.7c0.1,0,0.2,0,0.3,0c0.5,0,0.5-0.8,0-0.8c-0.1,0-0.2,0-0.3,0C66.2,438.9,66.2,439.7,66.7,439.7
			L66.7,439.7z"/>
	</g>
</g>
<g>
	<g>
		<path class="st5" d="M72.6,440.5c0.1,0.1,0.2,0.2,0.3,0.3c0.4,0.4,0.9-0.2,0.5-0.5c-0.1-0.1-0.2-0.2-0.3-0.3
			C72.8,439.6,72.3,440.2,72.6,440.5L72.6,440.5z"/>
	</g>
</g>
<g>
	<g>
		<path class="st5" d="M78.4,440c0.1,0,0.2,0,0.3,0c0.5,0,0.5-0.8,0-0.8c-0.1,0-0.2,0-0.3,0C77.9,439.3,77.9,440,78.4,440L78.4,440z
			"/>
	</g>
</g>
<g>
	<g>
		<path class="st5" d="M64.9,428c0.1,0,0.2,0,0.3,0c0.5,0,0.5-0.8,0-0.8c-0.1,0-0.2,0-0.3,0C64.4,427.3,64.4,428,64.9,428L64.9,428z
			"/>
	</g>
</g>
<g>
	<g>
		<path class="st5" d="M77.5,425.1c-0.1,0-0.2,0-0.3,0c-0.5,0-0.5,0.8,0,0.8c0.1,0,0.2,0,0.3,0C78,425.9,78,425.1,77.5,425.1
			L77.5,425.1z"/>
	</g>
</g>
<g>
	<g>
		<path class="st5" d="M80.8,487.9c0,0.1,0,0.2,0,0.3c0,0.5,0.8,0.5,0.8,0c0-0.1,0-0.2,0-0.3C81.6,487.4,80.8,487.4,80.8,487.9
			L80.8,487.9z"/>
	</g>
</g>
<g>
	<g>
		<path class="st5" d="M71.7,454.7c0-0.1,0-0.2,0-0.3c0-0.5-0.8-0.5-0.8,0c0,0.1,0,0.2,0,0.3C71,455.2,71.7,455.2,71.7,454.7
			L71.7,454.7z"/>
	</g>
</g>
<path class="st2" d="M71.7,314.1c11,55.5,9.9,111.7,1.2,167.2"/>
<path class="st2" d="M52.6,412.6c2.9-8-0.1-21.5-0.6-29.5"/>
<path class="st2" d="M54.4,357.8c2.5-8.4-1.9-30.8-8.5-38.1c-3.8,6.2-0.1,16,0.8,22.5c1.5,11.3,1.5,23.3,1.5,34.7"/>
<path class="st2" d="M54.4,437.8c2.1,7.5,1.3,15.6,0.9,23.2"/>
<path class="st2" d="M40.3,264.9c3.5,3.2,13.5,11.9,13.5,15.4"/>
<path class="st2" d="M74.1,262.4c0.6,1.6,1.5,3.4,2.5,4.9"/>
<path class="st2" d="M42.7,246.4c-2.5-2.7-2.4-5.4-3.1-8.8c-0.8-3.9-2.2-7.1-3.1-10.9"/>
<path class="st2" d="M319.2,131.6c1.8,1.4,4.3,0.7,6.5,1s4,1.6,6.4,0.8c1.1-0.4,1.9-1,2.7-1.9c-0.9-1.8-3.2-2-5-1.7
	c-2.1,0.3-4.4,0.5-6.5,0.8C322,130.8,320.6,131.1,319.2,131.6z"/>
<path class="st2" d="M358.4,132.4c0.7-1.2,1.5-2.4,3.2-2.7c1.6-0.3,3.4,0,4.9,0.4c0.6,0.2,3.3,2.1,2.6,2.8c-0.7,0.8-4.2-0.1-5.1-0.2
	C362.4,132.7,359.8,133.4,358.4,132.4z"/>
<path class="st2" d="M301,197c0.6,1.9,0.9,3.9,1.2,5.9c0.3,1.7,1.9,6.6,1.3,7.9"/>
<path class="st2" d="M316.1,218.3c0-3-1-5.9-1.2-8.8"/>
<path class="st2" d="M338.3,211.6c0.5-1.7,3.4-3.1,4.9-3.9"/>
<path class="st2" d="M279.2,125c0.1,0.9,0.4,1.7,0.6,2.5"/>
<path class="st2" d="M280.9,125.4c-0.1,1.1,0.6,1.9,0.8,2.9"/>
<path class="st2" d="M282.1,125.8c0.4,0.8,0.7,1.8,1,2.7"/>
<path class="st2" d="M283.5,125.8c0.2,1.2,0.7,2.7,1.2,3.9"/>
<path class="st2" d="M285,126.2c-0.1,1.3,0.7,4.3,1.4,5.1"/>
<path class="st2" d="M286,125.8c1.8,4.6,2.7,11.1,4.9,15"/>
<path class="st2" d="M287.6,126.4c0-0.1,0-0.1,0-0.2"/>
<path class="st2" d="M287.6,126.4c0.2-0.9,0.3,0.4,0.5,1c0.4,1,0.6,2.1,0.9,3.1c0.4,1.4,0.9,2.7,1.3,4.1c0.4,1.2,0.7,2.5,1,3.7
	c0.2,0.8,0.5,2.3,0.8,2.1"/>
<path class="st2" d="M289.1,126.2c2.4,3.8,2.1,10.7,4.3,13.9"/>
<path class="st2" d="M290.7,125.8c1.5,4.2,1.7,9.5,3.5,13.5"/>
<path class="st2" d="M292.6,126c0.4,3,1.3,6.1,2.1,9c0.3,1.4,0.5,3.6,1,4.5"/>
<path class="st2" d="M293.8,125.8c0.6,2.8,1.2,5.7,1.8,8.5c0.2,1,0.8,4.7,1.1,4.6"/>
<path class="st2" d="M294.8,126c1.2,4.1,1.6,8.6,2.3,12.7"/>
<path class="st2" d="M281.1,118.2c0.3,0.8,0.3,1.8,0.6,2.7"/>
<path class="st2" d="M280.5,119.5c0,0,0.1,0.9,0.2,1.2"/>
<path class="st2" d="M282.1,117.4c0,1.2,0.5,2.9,0.8,3.7"/>
<path class="st2" d="M282.9,116.6c0.2-0.4,0.3,0.7,0.5,1.4c0.3,1.1,0.5,2.5,1,3.3"/>
<path class="st2" d="M284.1,115.2c0.2,1.7,1.5,5.3,1.2,6.2"/>
<path class="st2" d="M285,113.9c1.1,2,1.5,5.3,1.8,7.5c0-0.3,0-0.7,0-1"/>
<path class="st2" d="M285.8,111.9c1,3.2,1.9,6.8,2.5,10c0.3-0.1,0-0.2,0-0.4"/>
<path class="st2" d="M286.8,111.9c1.1,2.9,1.2,7.4,2.7,9.6"/>
<path class="st2" d="M288.5,110.7c0.9,3.4,1.3,8.1,2.5,11.1c0-0.2,0-0.4,0-0.7"/>
<path class="st2" d="M289.9,109.6c0.3,4.1,1.8,8.6,2.9,12.4c0-0.2,0-0.5,0-0.8"/>
<path class="st2" d="M291.1,109c0.8,4,2,9.1,2.1,12.7"/>
<path class="st2" d="M292.6,107.6c0.5,4.1,1.9,9,1.6,13.1"/>
<path class="st2" d="M328,130.1c-0.8,0.7-1,2.2-0.1,2.9c0-0.1-0.1-0.1-0.1-0.2"/>
<path class="st2" d="M332,130c0.5-0.1,1.5,2.5,0.6,2.8"/>
<path class="st2" d="M360.5,130.1c-0.8,0.9-0.7,1.7-0.1,2.6"/>
<path class="st2" d="M364.9,129.8c0.8,0.8,0.5,2.3-0.5,2.8"/>
<path class="st2" d="M312.9,101.6c1.9,1.8,2.7,6.6,2.7,9.2"/>
</svg>
