<?xml version="1.0" encoding="utf-8"?>
<!-- Generator: Adobe Illustrator 21.0.1, SVG Export Plug-In . SVG Version: 6.00 Build 0)  -->
<svg version="1.1" id="Layer_1" xmlns="http://www.w3.org/2000/svg" xmlns:xlink="http://www.w3.org/1999/xlink" x="0px" y="0px"
	 viewBox="0 0 792 792" style="enable-background:new 0 0 792 792;" xml:space="preserve">
<style type="text/css">
	.st0{fill:#F7F7DF;stroke:#000000;stroke-width:2;stroke-miterlimit:10;}
	.st1{fill:none;stroke:#000000;stroke-width:0.5371;stroke-miterlimit:10;}
	.st2{fill:none;stroke:#000000;stroke-miterlimit:10;}
	.st3{stroke:#000000;stroke-miterlimit:10;}
	.st4{fill:#F2F2F7;}
</style>
<g>
	<g id="Layer_1_1_">
		<circle class="st0" cx="405.9" cy="374.1" r="294.9"/>
		<path class="st1" d="M412.6,679.2c0.1-1.4-0.1-3.2-0.5-4.3"/>
		<path class="st1" d="M-51.8,810c0,0.4,0,0.7,0,1.1"/>
		<path class="st2" d="M264.2,362.1c-1.1-8.9-1.7-19.8-1.7-30c0-11.8-2.8-24-1.7-35.4c0.4-4.3-1.8-9.1,0.1-13.3
			c10.9-0.7,19.1,3,29.2,6c5.3,1.6,10.6,3.4,15.6,5.4c5.5,2.1,11.3,3,16.8,4.8c3.7,1.2,8.6,1.2,11.8,3.2c-0.3-0.4-0.4-0.2-0.9-0.4"
			/>
		<path class="st2" d="M335.8,268.1c0.3-2.9,8.5-6.4,11.1-8.5c3.1-2.6,7.8-5,9.2-8.8c-2.2-2.4-9.9-0.8-13.2-1.7
			c-5.4-1.4-10.8-2-16.2-3.5c-7.5-2.1-15-4.2-22.6-6.4c-4.3-1.2-9.1-1.7-13.5-2.7c-3.7-0.8-5.4-2.5-8.9-4c-3-1.3-6.5-1.3-9.6-2
			c-2.8-0.6-5.5-1.7-8.1-2.6c-0.3,5.5,1.2,10.8,0.7,16.3c-0.6,5.9-2.6,12-2.4,18.1c0.1,4.6,0.3,8.6-0.4,13c-0.4,2.3-1.5,7.9-0.6,9.7
			c0.4-0.2,0.5-0.6,0.3-1.1"/>
		<path class="st2" d="M263.8,226.4c3-1.3,8.5-5.6,11.3-5"/>
		<path class="st2" d="M276.2,202.1c-0.1,5.5,1.4,11.2,1.7,16.7c0.1,2.3-0.6,4.5,1.1,6.3c2.4,2.6,9.5,2.5,12.9,3
			c4.8,0.7,9.3,2.4,14.1,2.7c5.1,0.3,10-0.8,15.1-1c8.2-0.3,16.7,1.1,24.8-1.4c5.7-1.7,12-5.3,17.4-6c-0.2-4.4-0.2-8.4-0.6-12.7
			c-0.4-3.5,1.8-9,0-11.3"/>
		<path class="st2" d="M276.5,201.1c1.7-5.3,10.7-9.9,15.2-12c6.4-3,12.6-3.3,19.5-4.3"/>
		<path class="st2" d="M329.5,185.4c5.6-2,13.5,1.2,18.6,3.5c5.3,2.4,11.5,3.4,14.7,8.5c0,0.4-0.2-0.3-0.4-0.4"/>
		<path class="st2" d="M280.8,196.4c6.5,9.1,18.2,10.9,28.5,12.3c13,1.8,24.9-0.7,37.4-4c3.3-0.9,9.5-3.2,11.2-5.7"/>
		<path class="st2" d="M360.8,207.4c-1.9,5.7-9.7,9.1-15.1,10.3c-7.7,1.8-17.6,4.5-25.5,3.2c-7.1-1.2-13.6-3.3-20.8-3.9
			c-5.8-0.5-13.4-3.6-18-7"/>
		<path class="st2" d="M311.5,192.4c0.1-1.8-2-8.3-0.3-9.9c1.5-1.4,9.2-1,11.4-1.1c4.9-0.1,5.5,1.2,6.2,6c0.6,4.3,1.2,7.2-3.8,8.2
			C321.4,196.3,314.5,196.4,311.5,192.4z"/>
		<path class="st2" d="M311.2,184.4c1.5,1.7,13.4,1.8,15.3-0.3"/>
		<path class="st2" d="M365.5,213.8c-0.9-0.3-1.7-0.7-2.5-1c5,0,9.7,2.4,14.2,4.1c-4.6,12.4,24.8,12.8,31.6,12
			c4.3-0.5,20.4-1.3,19.8-7.7c-0.2-2.4-4.6-5.2-6.7-6.3c-5.1-2.8-11-2.7-16.7-2.7c-6,0-11.5,0.7-17.3,1.7c-2.9,0.5-8.6,0.9-10.7,3"
			/>
		<path class="st2" d="M362.8,233.8c-2.3-5.8,14-9.3,12.6,0.9c-4.2,1.7-9-0.4-12.9-0.9"/>
		<path class="st2" d="M335.5,267.8c3.3-3.4,9.6-4.3,13.9-5.9c7.2-2.6,12.7-4.9,18.7-9.7c6.2-5,12.2-11,20.1-13.1
			c5.5-1.5,9.2-4.7,14.2-7c4.2-2,7.8-0.8,12.2,0.6c4.4,1.4,10.1,1.2,13.8,4.5c3.7,3.2,7.6,9.9,8.7,14.6c1.5,6.7,3.8,12.1,6.3,18.5
			c3.9,10.2,4.4,21.2,9.7,30.6c0.1,0.5-0.2-0.3-0.3-0.4"/>
		<path class="st2" d="M402.5,230.8c0.8-2.6,6.4-0.9,8.6-1.1c4.4-0.4,8.6-0.6,13.1-0.3c6.2,0.5,12-1.1,18.3,0
			c5.1,0.9,10.2,1.6,15.2,2.7c9.1,1.9,19,7.1,23.9,15c4,6.5,10.9,11.4,18.3,13.3c5.8,1.5,11.7-0.1,17.5-0.7c3.4-0.3,10.7-1.4,13,0.1
			"/>
		<path class="st2" d="M435.5,228.8c-0.6-4.9,1-7.9,5.5-9.7c5.6-2.3,12.5-4.1,18.4-5.6c7.1-1.8,14-4.7,21.1-6.4
			c6.3-1.5,12.3,3.8,18.6,5.4c5.1,1.3,10.4,2.2,15.2,4.4c3.4,1.5,6.4,4,9.5,5.6c-8.3,2.4-15.5,7.7-24,9.9c-4.7,1.3-9.3,1.2-13.6,3.5
			c-2.7-3.5-9.6-3.4-13.5-4.6c-5.5-1.6-10.9-4.1-16.6-5c-4.4-0.7-8.9-0.7-13-1.8c-2.4-0.7-4.5-1.6-6.7-2.2"/>
		<path class="st2" d="M485.8,235.1c2.8,7.5,4.9,15.1,6.7,22.7"/>
		<path class="st2" d="M525.5,223.1c3.4,7,5.3,12.5,5.7,20.2c0.1,2.8,0.1,11.9,1.3,13.5"/>
		<path class="st2" d="M453.8,301.4c1.3-1.1,3.1-0.2,4.7-0.2c3.5,0.2,7.3-0.9,10.7-1.7c7.6-1.8,15.3-3.2,23-4.4
			c4-0.7,8.2-1.5,12.1-1.7c4.6-0.3,8.3,1.6,12.8,2.6c8.4,1.9,16.3,4.7,24.9,6.7c3.8,0.9,6.8,2.9,10.4,4.5c2.4,1,5,1.3,7.3,2.4
			c2.5,1.2,4.6,3.3,7.3,4.2c2.8,0.9,3,0,5.9-0.8c6.3-1.8,13.2-0.8,19.5-2.7c5.3-1.6,31.9-12,25.7-19.9"/>
		<path class="st2" d="M521.8,277.8c0.9,2.4,0,5.4,0.7,7.9c1,3,3.7,4.8,6.4,6.6c8.5,5.4,17.8,7.1,27.6,8.8
			c10.7,1.9,19.5,3.8,30.3,1.3c9.2-2.1,17.9-5.1,26.3-8.9c2.5-1.1,5.1-1.5,6-4c0.9-2.6,0.1-6.1-0.1-8.7c-13.7,6.5-26.7,9-42.2,9
			c-4.9,0-10,0-14.8-1.1c-3.8-0.9-7.2-2.8-11-3.8c-6.5-1.6-13-2.2-19.3-4.2C529.7,280.1,521.7,279.3,521.8,277.8z"/>
		<path class="st2" d="M522.5,277.1c-2.2-4.2,4.1-13.4,7.3-16.2c6.6,6.9,15.4,11.9,24.9,14.3c7,1.8,14.9,1.2,22.1,1.6
			c7.1,0.3,12.8-2.5,19.5-3.7c4-0.7,12.1-1.1,12.7-6.3c0.5-4.4-6-6.5-9.2-8c-6-2.7-11.7-6.4-18.4-7.3c-7.7-1-16,1.6-23.6,1.9
			c-6.8,0.3-13.3,3-19.6,4.5c-2,0.5-9.2,2.1-9,4.2"/>
		<path class="st2" d="M609.2,266.4c1.7,1,3.1,5.9,4.5,8c1.1,1.6,2.4,5.1,4.2,6"/>
		<path class="st2" d="M334.2,306.4c0.7,5.8,2.5,12.5,2.2,18.3c-0.2,3.6-0.3,9.4-1.5,13"/>
		<path class="st2" d="M455.2,343.4c0.9,9.2,3.4,18.3,3.3,27.7c0,9.7,0,19.5,0.3,29.2c0.3,9.1-1.3,17.8-1.3,26.9
			c0,5.3,0.3,10.7,0.7,16c0.3,3.9,1.7,7.8,1.7,11.6c0,2.6-1.3,5.1-1.4,7.8"/>
		<path class="st2" d="M455.8,301.4c-0.4,0.1-0.6,0.3-0.7,0.7"/>
		<path class="st2" d="M457.8,365.4c1.4,0.5,11.4-1.4,14.2-1.8c7.3-1.2,13.4-3.4,20.9-3.3c4.6,0,7.7-1.3,12.1-2.3
			c4-0.9,5.5,0.4,9.1,2.1c6.1,3,13.1,4.3,19.7,5.9c7,1.7,13.8,4.3,20.9,5.5c2.3,0.4,4.3,0.8,6.5,1.6c1.4,0.5,3.3,2.1,4.7,2.3
			c4.1,0.4,10.3-3.3,14.7-4c7.3-1.2,13.4-1.2,20.5-3.8c3.8-1.4,10.6-2.4,13.1-4.4"/>
		<path class="st2" d="M618.2,291.4c8.9,0.3,4.7,30.6,4.7,36.7c0,9.3,2.2,22-2.8,30.2c-1.6,2.6-4.9,5-6.5,6.2"/>
		<path class="st2" d="M458.2,463.1c0,6,0.7,11.8-3,16.9c-3.6,5-9.7,11-14.7,14.6c-3.7,2.7-6.9,5.7-10.3,8.7
			c-3.1,2.7-6.7,4.3-9.8,6.7c4.8,0,9.4-0.3,14.1,0c8.4,0.4,16.4,3.9,24.7,4.9c7.7,0.9,15.3,1.7,23,2.4c5.5,0.5,11.4,0.6,16.5,2.9
			c-4.7-3.4-7.5-7.9-11.8-11.6c-5.1-4.4-10.6-8.1-14.4-13.8c-2.9-4.3-4.9-8.8-8.1-12.8c-2-2.5-6-4.9-7.3-7.7"/>
		<path class="st2" d="M498.5,519.4c-0.6-1.1,0.1-3.3,0.3-4.8c0.7-4.7,0.9-9.2,1-13.9c0.2-8.8,1.8-17.9,1.3-26.7
			c-0.2-4.7-1-9.3-1.3-13.9c-0.4-6.3,0.9-12.6,1.3-18.9c0.3-4.8-0.4-9.4-0.6-14.2c-0.3-6.2,0.7-12.3,0.9-18.5
			c0.5-11.5,0.7-23,1.9-34.4c0.6-5.6-0.5-10.6-0.8-16c0.5,0,0.4-0.2,0.6-0.4"/>
		<path class="st2" d="M498.8,520.4c2.8,2.7,8.4,3.9,12.5,5.5c6.2,2.4,12.4,5,18.5,7.7c7,3,14.2,5.2,21.2,7.9c2.2,0.8,4.6,1,6.7,1.8
			c1.2,0.4,3.9,2.8,5.1,2.5c3.1-0.8,1.4-17.5,1.5-20.3c0.2-5.3,1-10.6,0.6-15.8c-0.3-4-1.1-7.9-1-11.9c0.4-8.7,1.8-17.1,1.4-25.9
			c-0.4-9.2-0.2-18.8,0.7-28c1.2-11.5,1.2-22.9,0.6-34.3"/>
		<path class="st2" d="M566.5,409.1c0-7,1.8-14.2,2.1-21.3c0.3-6.8-0.1-13.4-0.1-20.1c0.1-6.5,1-13,0.7-19.5
			c-0.2-3.9,0.7-8.6-0.7-12.4"/>
		<path class="st2" d="M568.5,336.4c1.3-7.3,1.7-15.4,1.7-23"/>
		<path class="st2" d="M563.5,545.8c11.1-1.2,22.1-4.2,32.8-7.3c4.5-1.3,8.9-2.3,13.3-4.2c2.4-1,10.5-2.9,12-5.2
			c1.2-1.8,0-6.1-0.2-8.3c-0.4-4.5-0.5-8.3-0.1-12.8c0.7-9,1.4-17.6,1.4-26.7c0-10.9,1.9-21.5,2.6-32.3c0.6-8.6-0.3-17.7-0.9-26.2
			c-0.7-8.4-0.2-16.9-1-25.3c-0.4-4.7,0.6-9.4,0.6-14.1c0-2.8-0.5-8.3,0.7-10"/>
		<path class="st2" d="M624.5,373.8c0-8.2-2-15.7-2-24"/>
		<path class="st2" d="M621.2,528.1c0.6,6.9-7.5,12.6-12.5,15.9c-4.3,2.8-11.1,5.4-16,7.1c-5.2,1.8-11,3.1-16.4,4.4
			c-12.3,3.1-25.3-0.6-37.1-4.5c-12.8-4.3-25.4-9-37.9-14.4c-7.9-3.4-15.4-7.4-23.1-10.8"/>
		<path class="st2" d="M477.5,525.1c0.2-1.5-16.9-8.4-20.3-10.3"/>
		<path class="st2" d="M275.8,560.8c-0.1,0-0.2,0-0.3,0"/>
		<path class="st2" d="M275.8,560.8c3.3,3.3,7.9,2.9,12.6,2.7c3.5-0.2,6.7-1.4,10.1-2.1c4.1-0.8,8.6-0.7,12.5-2.2
			c13.8-5.3,27.8-11.1,41.2-17.3c5.2-2.4,10.1-4.4,15.3-6.8"/>
		<path class="st2" d="M355.5,541.1c11.7,0,20.7-3.9,30.7-9.7c8.1-4.7,16.3-9.1,23.6-15c3.3-2.6,4.6-7.4,8-9.6"/>
		<path class="st2" d="M415.5,509.8c-0.2,0.2-0.9-0.2-0.3,0.3c1.7,0.1,3.3,0.6,4.9,0.7"/>
		<path class="st2" d="M415.5,508.4c4.3-7.6,6.3-14.1,7.4-23c0.8-6.9,0.6-14.5-0.4-21.3c-1.8-11.3-1.7-23.2-4.3-34.3
			c-0.9-3.7-3.2-7.1-3.9-10.7c-0.5-2.3-0.1-6.8-1.7-8"/>
		<path class="st2" d="M384.2,412.1c1,4.3,4.1,9.2,6,13.3c1.6,3.6,4.1,6.7,5.4,10.6c3,9.7,4.7,20.2,4.7,30.3c0,5.8,0.2,11.3-1,16.9
			c-1.3,5.7-2.1,11.3-2.7,17.1c-0.9,9-8.4,17.7-14,24.6c-3.2,3.9-5.7,7.4-10.2,9.7c-2.2,1.1-4.9,2.1-6.8,3.1"/>
		<path class="st2" d="M335.2,548.4c10.1-14.8,18.6-31.8,21.2-49.7c0.8-5.4,2.9-10.4,2.4-16c-0.4-4.5-1.9-9-3.1-13.3
			c-1.8-7-3.4-13.8-5-21c-1.9-8.6-6.2-18-9.8-25.1"/>
		<path class="st2" d="M289.2,355.1c2.7-4.5,15.7-5,20.5-4.7c9.6,0.6,16.9,4.1,24.9,9.1c7.6,4.7,14.5,8.3,21,14.7
			c6.6,6.5,13.8,12.5,18.3,20.8c3.1,5.8,6.1,12.2,10.4,17.2c0-0.3,0-0.6,0-0.9"/>
		<path class="st2" d="M341.2,422.8c-0.6-4.6-4.1-7.4-6.5-11.2c-2.4-3.7-3.6-8-5.7-11.8c-3-5.5-9.6-10.8-14.5-14.6
			c-10.4-8-20.9-17-34-19.3c-4.6-0.8-11.2-4.1-15-2.1"/>
		<path class="st2" d="M289.2,353.4c-0.2-3.7,7.2-4.2,9.8-5.3c4.9-2.2,10-3.3,14.9-5.3c8.3-3.4,14.3-5.5,22.7-3.7
			c11.4,2.4,25.3,6.9,34.3,14.4c10.4,8.6,19.7,19.4,27.4,30.5c3.8,5.5,6.3,11.9,9.6,17.7c1.6,2.8,6.7,10.7,6.3,13.1"/>
		<path class="st2" d="M342.8,338.8c0.7-1.5,1.1-3.3,2.7-4c1.2-0.6,4.9-0.3,6.2-0.3c7.7-0.3,12.6,0.4,19.5,4.5
			c4.3,2.5,7.7,5.9,11.7,8.8c4,2.9,8.7,5,12.4,8.4c7.4,6.9,14.5,16.5,19.9,25.1c4.6,7.2,7,15.3,10.3,23.2c2.6,6.3,5.8,12.7,7.3,19.5
			c1.6,7.7,0.9,15.9,1.6,23.7c0.3,3.4,1.1,6.7,1.6,10.1c0.7,4.7-0.6,9.2-1,13.9c-0.6,5.6,0.2,11.4-0.7,16.9
			c-0.8,4.8-2.2,10-3.3,14.4"/>
		<path class="st2" d="M431.5,500.8c3.5-3.7,7.7-7,11.2-10.9c4.2-4.8,5.4-9.2,7.8-14.7c3.3-7.7,5.5-13.2,4.7-21.9
			c-0.6-6.4-1.7-13.1-2-19.5c-0.7-14.3-5-29.7-12.3-42c-4.1-6.8-8.7-13.2-12.2-20.4c-3.2-6.6-8.9-10.6-14.3-15.4
			c-10.4-9.1-27.6-16-41.5-14.8c0.1,0.5,0.3,0.1,0.6,0.3"/>
	</g>
	<g id="Layer_2">
		<path class="st2" d="M340.8,280.8c0,3.9-0.4,7.4-0.8,11.2c-0.3,3.3,0.7,7.9-0.5,10.8c2.8,2.6,9,3.4,12.7,4.6
			c7.4,2.3,14.8,4.5,22.3,6.8c9.4,3,19.5,4.3,28.8,7.7c8.8,3.2,17.8,5.5,26.6,8.3c5,1.6,10.9,4.7,15.9,5.6c0.8-4.2,0.7-8.7,0.7-13.1
			c0-3.8-1-10.7,0.2-14.1c-12.7-1.3-25.1-6.7-37.7-9.2c-7.4-1.5-13.9-4.9-21.2-6.9c-9.9-2.7-20.5-2.6-30.7-5.5
			C351.6,285.2,346.1,282,340.8,280.8z"/>
		<path class="st2" d="M335.5,268.4c-1.9,8.5-2.1,18.1-1.7,27.2c0.2,3.4,0.3,7.1,0.7,10.5c0.5,4.5,1.4,4.7,5.6,6.3
			c10.4,3.8,20.8,5.6,31.4,8.6c14.4,4,28.3,9.7,42.5,14.1c8.4,2.6,17.1,4.1,25.5,6.5c3.1,0.9,6.4,2.3,9.5,2.9c2,0.4,4.2-0.4,6.1,0.3
			c1.6-3.4,0.9-9.8,0.7-13.6c-0.3-6-0.6-12.4-0.6-18.4c0-4.1,1.5-10-2.4-11.8c-3.3-1.6-7.9-1.8-11.5-2.9
			c-12.9-3.6-25.7-6.8-38.8-10.3c-12.3-3.3-24.6-7.5-37.2-10.7c-6.3-1.6-12.6-3.3-18.7-4.6C343.8,271.8,337.7,269.1,335.5,268.4z"/>
		<path class="st2" d="M219.5,394.1c-4.3,0-10.5,7.6-12.8,10.6c-4.5,5.7-8.6,12.3-9.9,19.4c-1.6,9.2-1.6,19-2,28.3
			c-0.4,10.1,0.1,21.1,3.2,30.7c3.5,10.6,8.5,20.8,13.7,30.6c3.3,6.2,6,12.1,10.8,17.2c4.1,4.3,8.9,7.6,13.9,10.8
			c11.1,7.1,19.4,18.2,34,18.4c5.1,0.1,11.4-1.6,16.3-3.3c6.5-2.3,10.7-6.8,14.7-12.1c8.9-11.7,13.9-28.8,14-43.6
			c0-7.1-3.3-14.2-4-21.3c-0.9-8.8-1.5-17.4-3.7-26c-4-15.8-13.5-31.5-23.7-44.1c-7.7-9.4-20-14.5-30.6-19.7c-5.4-2.6-8.4-4-14.3-3
			c-5.5,0.9-10.9,1.7-16,4C221.3,391.9,219.3,392.8,219.5,394.1z"/>
		<path class="st2" d="M196.5,424.1c0.7-9.3,6.1-19.9,11.5-27.5c5.9-8.4,17.1-15.2,27.4-17c23.7-4.1,41.2,14.3,57.6,28.2
			c8.9,7.5,14.9,21.1,18.8,31.7c2.2,5.9,4.8,11.7,6.9,17.8c2.7,7.8,2.6,15,3.4,23.1c1.5,14.5,3.4,28.6,0.1,43
			c-2.4,10.5-10.2,18.2-18.3,25c-6.9,5.8-12,9.1-20.6,11c-6.7,1.5-12.6,2-19.2,0.3c-1.4-0.4-2.3-0.2-3.3-1.3"/>
		<path class="st2" d="M277.8,404.1c-2.5-1.6-5.8-0.7-8.7,0.3c-6.2,2.2-10.9,7.5-14.3,12.9c-8.5,13.7-5.7,32.2-3.1,47.2
			c2.8,16.3,10.8,32.8,24.2,42.9c8.3,6.3,19.1,9.8,28.9,5.8c6-2.4,7.6-7.2,9.3-12.8"/>
		<path class="st2" d="M215.8,387.1c2.1-2.6,7.1-4.9,10.1-6.6c4-2.3,6.1-5.3,9.9-8.1c5.1-3.8,11.5-5.5,17.7-7.1
			c6.6-1.8,13.5-1.9,19.9-4.2c3.2-1.2,14.2-3.2,15.1-5.1"/>
		<path class="st2" d="M352.3,285.4c-3.6,3.9-1.8,14.4-1.8,19.8"/>
		<path class="st2" d="M357.3,288.2c-0.7,6.3-0.3,14.6-0.9,19.8"/>
		<path class="st2" d="M362.9,289.6c0,7,0.3,14.4-0.5,21.2"/>
		<path class="st2" d="M368.9,290c-1.2,3.1-0.5,8.8-0.9,12.4c-0.3,2.8-0.1,6.2,0.4,7.9"/>
		<path class="st2" d="M374.9,291.4c0,5.6,1,17.2,0,20.8"/>
		<path class="st2" d="M379.9,291.9c-0.3,4.3,0.7,8.7,0.5,13.1c-0.2,3.7-1.2,7.6-0.9,11.3"/>
		<path class="st2" d="M384.6,294.8c1.9,5.8,0,15.6,0,20.8"/>
		<path class="st2" d="M391.5,296.5c-0.1,6.9-4,17.7-1.4,23.5"/>
		<path class="st2" d="M398.4,298.3c-1.4,2.6-0.5,8.2-1,11.6c-0.5,3.8-0.9,7.2-0.9,11"/>
		<path class="st2" d="M403.9,299.8c0.4,7.4-0.2,15.9-1.9,23.1c-0.1,0.8,0.2-0.3,0.5-0.4"/>
		<path class="st2" d="M409,301.1c0,7.2,0.3,15.7-1.3,22.7c-0.6,0.7,0.5-0.8,0.4-0.6"/>
		<path class="st2" d="M415,302.5c0,7.7-1.6,14.3-2.3,21.7"/>
		<path class="st2" d="M421,303c0,8.3-2.4,17.4-1.8,25.4"/>
		<path class="st2" d="M426.1,305.3c0.1,6.9-0.3,14.3-2.3,20.8"/>
		<path class="st2" d="M433,306.2c0,7.5-0.4,15-1.3,22.3c-0.5,0.6,0.4-0.7,0.4-0.6"/>
		<path class="st2" d="M438.1,310.3c0.2,6.8-1.5,13.6-1.8,20.3"/>
		<path class="st2" d="M342.6,286.8c7.5,5.6,23.3,8.3,33.7,13.1c15.9,7.2,34.5,6.4,50.8,13.6c2.9,1.3,5.3,2.9,8.3,3.8
			c3,0.9,6.5,1,9.2,2.3"/>
		<path class="st2" d="M342.6,294.8c5.5,1.6,11,4.8,16.6,7c8.2,3.4,17,5.4,25.5,7.7c7.2,2,14.5,4,21.8,5.9
			c8.5,2.2,18.1,3.7,26.3,6.6c4.8,1.7,9.5,6,14.5,6.5"/>
		<path class="st3" d="M278,411.6c0.2-0.1,0.4-0.4,0.6-0.5c-6.1-5.6-10.8,13.6-11.2,16.4c-0.7,4.9,0.3,9.6,0.5,14.5
			c0.2,5.7,0.5,11.5,2.1,17c1.1,4.1,1.9,9.3,3.8,13.1c1.7,3.3,4.7,6.3,6.7,9.4c2.9,4.4,4.8,8.6,8.5,12.5c3.8,4.1,9.2,10.5,15,11.6
			c14.2,2.8,7.7-23.2,7-29.9c-0.7-6,0.1-13.8-1.9-19.3c-2.5-6.7-5.3-13.1-8.6-19.5c-3.1-6.1-6.4-11.3-11-16.2
			c-2.5-2.6-4.5-6-7.3-8.3c-1.7-1.3-3.6-1.8-5.2-2.5"/>
	</g>
	<g>
		<path class="st4" d="M184.1,687.1c10.9,0,19.2,5.6,19.2,17.3c0,11.6-8.2,18-19.2,18h-7.7v20.8h-12.8v-56.1H184.1z M180,712.1
			c5,0,9.8-1.7,9.8-7.4c0-5.8-4.8-7.5-9.8-7.5h-3.6v14.9H180z"/>
		<path class="st4" d="M208.9,684.7h12v27.3h0.1c2.7-2.7,6.2-4.7,10-4.7c6.4,0,15.3,3.2,15.3,12.9v23h-12v-19.7
			c0-3.5-2.4-6.8-6.3-6.8c-3.6,0-7.1,3.3-7.1,6.8v19.7h-12V684.7z"/>
		<path class="st4" d="M272.3,707.2c11.6,0,20.8,7.6,20.8,18.5c0,10.7-8.8,18.4-20.8,18.4c-12.6,0-21-7.7-21-18.4
			C251.3,714.9,260.6,707.2,272.3,707.2z M272.3,733.9c4.7,0,8.1-3.4,8.1-8.2c0-4.8-3.6-8.2-8.1-8.2c-4.6,0-8.2,3.4-8.2,8.2
			C264.1,730.5,267.4,733.9,272.3,733.9z"/>
		<path class="st4" d="M300.5,695.3h12v13h7.3v9.2h-7.3v11.1c0,3.3,0.8,4.8,2.7,4.8c1.6,0,3-1.1,3-1.1l3,9.7c0,0-3.9,2.2-8.8,2.2
			c-9.6,0-11.9-7.1-11.9-13.3v-13.4h-5v-9.2h5V695.3z"/>
		<path class="st4" d="M343.8,707.2c11.6,0,20.8,7.6,20.8,18.5c0,10.7-8.8,18.4-20.8,18.4c-12.6,0-21-7.7-21-18.4
			C322.8,714.9,332,707.2,343.8,707.2z M343.7,733.9c4.7,0,8.1-3.4,8.1-8.2c0-4.8-3.6-8.2-8.1-8.2c-4.6,0-8.2,3.4-8.2,8.2
			C335.6,730.5,338.8,733.9,343.7,733.9z"/>
		<path class="st4" d="M378.5,746.9c1.3,2.1,4.2,4.5,9.5,4.5c3.3,0,8.5-2,8.5-8.2v-2.6c-2.6,2.9-6.7,3.5-11.4,3.5
			c-10.2,0-17.3-8.2-17.3-18.4s7.1-18.5,17.3-18.5c4.6,0,8.4,1.5,11.2,4.1h0.2v-3.1h12v35.8c0,11.7-8.6,17.7-20.5,17.7
			c-7.3,0-15.6-1.6-19.3-10.1L378.5,746.9z M388.7,733.9c4.7,0,8.1-3.4,8.1-8.2c0-4.8-3.6-8.2-8.1-8.2c-4.6,0-8.2,3.4-8.2,8.2
			C380.5,730.5,383.8,733.9,388.7,733.9z"/>
		<path class="st4" d="M416.7,708.3h12v5h0.1c0,0,3.8-6.1,10.7-6.1c4.5,0,7.6,2.2,7.6,2.2l-5,10.2c0,0-2.2-1.9-6.3-1.9
			c-6.3,0-7.1,6.2-7.1,7.1v18.4h-12V708.3z"/>
		<path class="st4" d="M464.8,707.2c4.7,0,8.6,1.6,11.4,4.4v-3.3h12v34.9h-11.9v-3.9h-0.1c-2.6,2.9-6.7,5-11.4,5
			c-10.2,0-17.3-8.2-17.3-18.4S454.6,707.2,464.8,707.2z M468.4,733.9c4.7,0,8.1-3.4,8.1-8.2c0-4.8-3.6-8.2-8.1-8.2
			c-4.6,0-8.2,3.4-8.2,8.2C460.3,730.5,463.5,733.9,468.4,733.9z"/>
		<path class="st4" d="M519.9,744.2c-4.7,0-8.6-1.6-11.4-4.4v21h-12v-52.6h11.9v3.9h0.1c2.6-2.9,6.7-5,11.4-5
			c10.2,0,17.3,8.2,17.3,18.4C537.3,735.9,530.1,744.2,519.9,744.2z M516.3,717.5c-4.7,0-8.1,3.4-8.1,8.2c0,4.8,3.6,8.2,8.1,8.2
			c4.6,0,8.2-3.4,8.2-8.2C524.5,720.9,521.2,717.5,516.3,717.5z"/>
		<path class="st4" d="M542.9,684.7h12v27.3h0.1c2.7-2.7,6.2-4.7,10-4.7c6.4,0,15.3,3.2,15.3,12.9v23h-12v-19.7
			c0-3.5-2.4-6.8-6.3-6.8c-3.6,0-7.1,3.3-7.1,6.8v19.7h-12V684.7z"/>
		<path class="st4" d="M628.2,708.3l-27.4,52.6h-13.9l12-23.1l-16.5-29.4h13.9l9.7,17.9l8.3-17.9H628.2z"/>
	</g>
</g>
</svg>
