<?xml version="1.0" encoding="utf-8"?>
<!-- Generator: Adobe Illustrator 21.0.1, SVG Export Plug-In . SVG Version: 6.00 Build 0)  -->
<svg version="1.1" id="Layer_1" xmlns="http://www.w3.org/2000/svg" xmlns:xlink="http://www.w3.org/1999/xlink" x="0px" y="0px"
	 viewBox="0 0 589.8 671.7" style="enable-background:new 0 0 589.8 671.7;" xml:space="preserve">
<style type="text/css">
	.st0{fill:#FFFEF8;stroke:#000000;stroke-width:2;stroke-miterlimit:10;}
	.st1{fill:none;stroke:#000000;stroke-width:0.5371;stroke-miterlimit:10;}
	.st2{fill:none;stroke:#000000;stroke-miterlimit:10;}
	.st3{fill:#D82E2E;stroke:#000000;stroke-miterlimit:10;}
	.st4{fill:#FCFCFC;}
</style>
<g>
	<g>
		<g id="Layer_1_1_">
			<circle class="st0" cx="294.9" cy="294.9" r="294.9"/>
			<path class="st1" d="M301.6,600c0.1-1.4-0.1-3.2-0.5-4.3"/>
			<path class="st1" d="M-162.8,730.8c0,0.4,0,0.7,0,1.1"/>
			<path class="st2" d="M153.2,282.9c-1.1-8.9-1.7-19.8-1.7-30c0-11.8-2.8-24-1.7-35.4c0.4-4.3-1.8-9.1,0.1-13.3
				c10.9-0.7,19.1,3,29.2,6c5.3,1.6,10.6,3.4,15.6,5.4c5.5,2.1,11.3,3,16.8,4.8c3.7,1.2,8.6,1.2,11.8,3.2c-0.3-0.4-0.4-0.2-0.9-0.4"
				/>
			<path class="st2" d="M224.8,188.9c0.3-2.9,8.5-6.4,11.1-8.5c3.1-2.6,7.8-5,9.2-8.8c-2.2-2.4-9.9-0.8-13.2-1.7
				c-5.4-1.4-10.8-2-16.2-3.5c-7.5-2.1-15-4.2-22.6-6.4c-4.3-1.2-9.1-1.7-13.5-2.7c-3.7-0.8-5.4-2.5-8.9-4c-3-1.3-6.5-1.3-9.6-2
				c-2.8-0.6-5.5-1.7-8.1-2.6c-0.3,5.5,1.2,10.8,0.7,16.3c-0.6,5.9-2.6,12-2.4,18.1c0.1,4.6,0.3,8.6-0.4,13
				c-0.4,2.3-1.5,7.9-0.6,9.7c0.4-0.2,0.5-0.6,0.3-1.1"/>
			<path class="st2" d="M152.8,147.2c3-1.3,8.5-5.6,11.3-5"/>
			<path class="st2" d="M165.2,122.9c-0.1,5.5,1.4,11.2,1.7,16.7c0.1,2.3-0.6,4.5,1.1,6.3c2.4,2.6,9.5,2.5,12.9,3
				c4.8,0.7,9.3,2.4,14.1,2.7c5.1,0.3,10-0.8,15.1-1c8.2-0.3,16.7,1.1,24.8-1.4c5.7-1.7,12-5.3,17.4-6c-0.2-4.4-0.2-8.4-0.6-12.7
				c-0.4-3.5,1.8-9,0-11.3"/>
			<path class="st2" d="M165.5,121.9c1.7-5.3,10.7-9.9,15.2-12c6.4-3,12.6-3.3,19.5-4.3"/>
			<path class="st2" d="M218.5,106.2c5.6-2,13.5,1.2,18.6,3.5c5.3,2.4,11.5,3.4,14.7,8.5c0,0.4-0.2-0.3-0.4-0.4"/>
			<path class="st2" d="M169.8,117.2c6.5,9.1,18.2,10.9,28.5,12.3c13,1.8,24.9-0.7,37.4-4c3.3-0.9,9.5-3.2,11.2-5.7"/>
			<path class="st2" d="M249.8,128.2c-1.9,5.7-9.7,9.1-15.1,10.3c-7.7,1.8-17.6,4.5-25.5,3.2c-7.1-1.2-13.6-3.3-20.8-3.9
				c-5.8-0.5-13.4-3.6-18-7"/>
			<path class="st2" d="M200.5,113.2c0.1-1.8-2-8.3-0.3-9.9c1.5-1.4,9.2-1,11.4-1.1c4.9-0.1,5.5,1.2,6.2,6c0.6,4.3,1.2,7.2-3.8,8.2
				C210.4,117.1,203.5,117.2,200.5,113.2z"/>
			<path class="st2" d="M200.2,105.2c1.5,1.7,13.4,1.8,15.3-0.3"/>
			<path class="st2" d="M254.5,134.6c-0.9-0.3-1.7-0.7-2.5-1c5,0,9.7,2.4,14.2,4.1c-4.6,12.4,24.8,12.8,31.6,12
				c4.3-0.5,20.4-1.3,19.8-7.7c-0.2-2.4-4.6-5.2-6.7-6.3c-5.1-2.8-11-2.7-16.7-2.7c-6,0-11.5,0.7-17.3,1.7c-2.9,0.5-8.6,0.9-10.7,3"
				/>
			<path class="st2" d="M251.8,154.6c-2.3-5.8,14-9.3,12.6,0.9c-4.2,1.7-9-0.4-12.9-0.9"/>
			<path class="st2" d="M224.5,188.6c3.3-3.4,9.6-4.3,13.9-5.9c7.2-2.6,12.7-4.9,18.7-9.7c6.2-5,12.2-11,20.1-13.1
				c5.5-1.5,9.2-4.7,14.2-7c4.2-2,7.8-0.8,12.2,0.6c4.4,1.4,10.1,1.2,13.8,4.5c3.7,3.2,7.6,9.9,8.7,14.6c1.5,6.7,3.8,12.1,6.3,18.5
				c3.9,10.2,4.4,21.2,9.7,30.6c0.1,0.5-0.2-0.3-0.3-0.4"/>
			<path class="st2" d="M291.5,151.6c0.8-2.6,6.4-0.9,8.6-1.1c4.4-0.4,8.6-0.6,13.1-0.3c6.2,0.5,12-1.1,18.3,0
				c5.1,0.9,10.2,1.6,15.2,2.7c9.1,1.9,19,7.1,23.9,15c4,6.5,10.9,11.4,18.3,13.3c5.8,1.5,11.7-0.1,17.5-0.7
				c3.4-0.3,10.7-1.4,13,0.1"/>
			<path class="st2" d="M324.5,149.6c-0.6-4.9,1-7.9,5.5-9.7c5.6-2.3,12.5-4.1,18.4-5.6c7.1-1.8,14-4.7,21.1-6.4
				c6.3-1.5,12.3,3.8,18.6,5.4c5.1,1.3,10.4,2.2,15.2,4.4c3.4,1.5,6.4,4,9.5,5.6c-8.3,2.4-15.5,7.7-24,9.9
				c-4.7,1.3-9.3,1.2-13.6,3.5c-2.7-3.5-9.6-3.4-13.5-4.6c-5.5-1.6-10.9-4.1-16.6-5c-4.4-0.7-8.9-0.7-13-1.8
				c-2.4-0.7-4.5-1.6-6.7-2.2"/>
			<path class="st2" d="M374.8,155.9c2.8,7.5,4.9,15.1,6.7,22.7"/>
			<path class="st2" d="M414.5,143.9c3.4,7,5.3,12.5,5.7,20.2c0.1,2.8,0.1,11.9,1.3,13.5"/>
			<path class="st2" d="M342.8,222.2c1.3-1.1,3.1-0.2,4.7-0.2c3.5,0.2,7.3-0.9,10.7-1.7c7.6-1.8,15.3-3.2,23-4.4
				c4-0.7,8.2-1.5,12.1-1.7c4.6-0.3,8.3,1.6,12.8,2.6c8.4,1.9,16.3,4.7,24.9,6.7c3.8,0.9,6.8,2.9,10.4,4.5c2.4,1,5,1.3,7.3,2.4
				c2.5,1.2,4.6,3.3,7.3,4.2c2.8,0.9,3,0,5.9-0.8c6.3-1.8,13.2-0.8,19.5-2.7c5.3-1.6,31.9-12,25.7-19.9"/>
			<path class="st2" d="M410.8,198.6c0.9,2.4,0,5.4,0.7,7.9c1,3,3.7,4.8,6.4,6.6c8.5,5.4,17.8,7.1,27.6,8.8
				c10.7,1.9,19.5,3.8,30.3,1.3c9.2-2.1,17.9-5.1,26.3-8.9c2.5-1.1,5.1-1.5,6-4c0.9-2.6,0.1-6.1-0.1-8.7c-13.7,6.5-26.7,9-42.2,9
				c-4.9,0-10,0-14.8-1.1c-3.8-0.9-7.2-2.8-11-3.8c-6.5-1.6-13-2.2-19.3-4.2C418.7,200.9,410.7,200.1,410.8,198.6z"/>
			<path class="st2" d="M411.5,197.9c-2.2-4.2,4.1-13.4,7.3-16.2c6.6,6.9,15.4,11.9,24.9,14.3c7,1.8,14.9,1.2,22.1,1.6
				c7.1,0.3,12.8-2.5,19.5-3.7c4-0.7,12.1-1.1,12.7-6.3c0.5-4.4-6-6.5-9.2-8c-6-2.7-11.7-6.4-18.4-7.3c-7.7-1-16,1.6-23.6,1.9
				c-6.8,0.3-13.3,3-19.6,4.5c-2,0.5-9.2,2.1-9,4.2"/>
			<path class="st2" d="M498.2,187.2c1.7,1,3.1,5.9,4.5,8c1.1,1.6,2.4,5.1,4.2,6"/>
			<path class="st2" d="M223.2,227.2c0.7,5.8,2.5,12.5,2.2,18.3c-0.2,3.6-0.3,9.4-1.5,13"/>
			<path class="st2" d="M344.2,264.2c0.9,9.2,3.4,18.3,3.3,27.7c0,9.7,0,19.5,0.3,29.2c0.3,9.1-1.3,17.8-1.3,26.9
				c0,5.3,0.3,10.7,0.7,16c0.3,3.9,1.7,7.8,1.7,11.6c0,2.6-1.3,5.1-1.4,7.8"/>
			<path class="st2" d="M344.8,222.2c-0.4,0.1-0.6,0.3-0.7,0.7"/>
			<path class="st2" d="M346.8,286.2c1.4,0.5,11.4-1.4,14.2-1.8c7.3-1.2,13.4-3.4,20.9-3.3c4.6,0,7.7-1.3,12.1-2.3
				c4-0.9,5.5,0.4,9.1,2.1c6.1,3,13.1,4.3,19.7,5.9c7,1.7,13.8,4.3,20.9,5.5c2.3,0.4,4.3,0.8,6.5,1.6c1.4,0.5,3.3,2.1,4.7,2.3
				c4.1,0.4,10.3-3.3,14.7-4c7.3-1.2,13.4-1.2,20.5-3.8c3.8-1.4,10.6-2.4,13.1-4.4"/>
			<path class="st2" d="M507.2,212.2c8.9,0.3,4.7,30.6,4.7,36.7c0,9.3,2.2,22-2.8,30.2c-1.6,2.6-4.9,5-6.5,6.2"/>
			<path class="st2" d="M347.2,383.9c0,6,0.7,11.8-3,16.9c-3.6,5-9.7,11-14.7,14.6c-3.7,2.7-6.9,5.7-10.3,8.7
				c-3.1,2.7-6.7,4.3-9.8,6.7c4.8,0,9.4-0.3,14.1,0c8.4,0.4,16.4,3.9,24.7,4.9c7.7,0.9,15.3,1.7,23,2.4c5.5,0.5,11.4,0.6,16.5,2.9
				c-4.7-3.4-7.5-7.9-11.8-11.6c-5.1-4.4-10.6-8.1-14.4-13.8c-2.9-4.3-4.9-8.8-8.1-12.8c-2-2.5-6-4.9-7.3-7.7"/>
			<path class="st2" d="M387.5,440.2c-0.6-1.1,0.1-3.3,0.3-4.8c0.7-4.7,0.9-9.2,1-13.9c0.2-8.8,1.8-17.9,1.3-26.7
				c-0.2-4.7-1-9.3-1.3-13.9c-0.4-6.3,0.9-12.6,1.3-18.9c0.3-4.8-0.4-9.4-0.6-14.2c-0.3-6.2,0.7-12.3,0.9-18.5
				c0.5-11.5,0.7-23,1.9-34.4c0.6-5.6-0.5-10.6-0.8-16c0.5,0,0.4-0.2,0.6-0.4"/>
			<path class="st2" d="M387.8,441.2c2.8,2.7,8.4,3.9,12.5,5.5c6.2,2.4,12.4,5,18.5,7.7c7,3,14.2,5.2,21.2,7.9
				c2.2,0.8,4.6,1,6.7,1.8c1.2,0.4,3.9,2.8,5.1,2.5c3.1-0.8,1.4-17.5,1.5-20.3c0.2-5.3,1-10.6,0.6-15.8c-0.3-4-1.1-7.9-1-11.9
				c0.4-8.7,1.8-17.1,1.4-25.9c-0.4-9.2-0.2-18.8,0.7-28c1.2-11.5,1.2-22.9,0.6-34.3"/>
			<path class="st2" d="M455.5,329.9c0-7,1.8-14.2,2.1-21.3c0.3-6.8-0.1-13.4-0.1-20.1c0.1-6.5,1-13,0.7-19.5
				c-0.2-3.9,0.7-8.6-0.7-12.4"/>
			<path class="st2" d="M457.5,257.2c1.3-7.3,1.7-15.4,1.7-23"/>
			<path class="st2" d="M452.5,466.6c11.1-1.2,22.1-4.2,32.8-7.3c4.5-1.3,8.9-2.3,13.3-4.2c2.4-1,10.5-2.9,12-5.2
				c1.2-1.8,0-6.1-0.2-8.3c-0.4-4.5-0.5-8.3-0.1-12.8c0.7-9,1.4-17.6,1.4-26.7c0-10.9,1.9-21.5,2.6-32.3c0.6-8.6-0.3-17.7-0.9-26.2
				c-0.7-8.4-0.2-16.9-1-25.3c-0.4-4.7,0.6-9.4,0.6-14.1c0-2.8-0.5-8.3,0.7-10"/>
			<path class="st2" d="M513.5,294.6c0-8.2-2-15.7-2-24"/>
			<path class="st2" d="M510.2,448.9c0.6,6.9-7.5,12.6-12.5,15.9c-4.3,2.8-11.1,5.4-16,7.1c-5.2,1.8-11,3.1-16.4,4.4
				c-12.3,3.1-25.3-0.6-37.1-4.5c-12.8-4.3-25.4-9-37.9-14.4c-7.9-3.4-15.4-7.4-23.1-10.8"/>
			<path class="st2" d="M366.5,445.9c0.2-1.5-16.9-8.4-20.3-10.3"/>
			<path class="st2" d="M164.8,481.6c-0.1,0-0.2,0-0.3,0"/>
			<path class="st2" d="M164.8,481.6c3.3,3.3,7.9,2.9,12.6,2.7c3.5-0.2,6.7-1.4,10.1-2.1c4.1-0.8,8.6-0.7,12.5-2.2
				c13.8-5.3,27.8-11.1,41.2-17.3c5.2-2.4,10.1-4.4,15.3-6.8"/>
			<path class="st2" d="M244.5,461.9c11.7,0,20.7-3.9,30.7-9.7c8.1-4.7,16.3-9.1,23.6-15c3.3-2.6,4.6-7.4,8-9.6"/>
			<path class="st2" d="M304.5,430.6c-0.2,0.2-0.9-0.2-0.3,0.3c1.7,0.1,3.3,0.6,4.9,0.7"/>
			<path class="st2" d="M304.5,429.2c4.3-7.6,6.3-14.1,7.4-23c0.8-6.9,0.6-14.5-0.4-21.3c-1.8-11.3-1.7-23.2-4.3-34.3
				c-0.9-3.7-3.2-7.1-3.9-10.7c-0.5-2.3-0.1-6.8-1.7-8"/>
			<path class="st2" d="M273.2,332.9c1,4.3,4.1,9.2,6,13.3c1.6,3.6,4.1,6.7,5.4,10.6c3,9.7,4.7,20.2,4.7,30.3c0,5.8,0.2,11.3-1,16.9
				c-1.3,5.7-2.1,11.3-2.7,17.1c-0.9,9-8.4,17.7-14,24.6c-3.2,3.9-5.7,7.4-10.2,9.7c-2.2,1.1-4.9,2.1-6.8,3.1"/>
			<path class="st2" d="M224.2,469.2c10.1-14.8,18.6-31.8,21.2-49.7c0.8-5.4,2.9-10.4,2.4-16c-0.4-4.5-1.9-9-3.1-13.3
				c-1.8-7-3.4-13.8-5-21c-1.9-8.6-6.2-18-9.8-25.1"/>
			<path class="st2" d="M178.2,275.9c2.7-4.5,15.7-5,20.5-4.7c9.6,0.6,16.9,4.1,24.9,9.1c7.6,4.7,14.5,8.3,21,14.7
				c6.6,6.5,13.8,12.5,18.3,20.8c3.1,5.8,6.1,12.2,10.4,17.2c0-0.3,0-0.6,0-0.9"/>
			<path class="st2" d="M230.2,343.6c-0.6-4.6-4.1-7.4-6.5-11.2c-2.4-3.7-3.6-8-5.7-11.8c-3-5.5-9.6-10.8-14.5-14.6
				c-10.4-8-20.9-17-34-19.3c-4.6-0.8-11.2-4.1-15-2.1"/>
			<path class="st2" d="M178.2,274.2c-0.2-3.7,7.2-4.2,9.8-5.3c4.9-2.2,10-3.3,14.9-5.3c8.3-3.4,14.3-5.5,22.7-3.7
				c11.4,2.4,25.3,6.9,34.3,14.4c10.4,8.6,19.7,19.4,27.4,30.5c3.8,5.5,6.3,11.9,9.6,17.7c1.6,2.8,6.7,10.7,6.3,13.1"/>
			<path class="st2" d="M231.8,259.6c0.7-1.5,1.1-3.3,2.7-4c1.2-0.6,4.9-0.3,6.2-0.3c7.7-0.3,12.6,0.4,19.5,4.5
				c4.3,2.5,7.7,5.9,11.7,8.8s8.7,5,12.4,8.4c7.4,6.9,14.5,16.5,19.9,25.1c4.6,7.2,7,15.3,10.3,23.2c2.6,6.3,5.8,12.7,7.3,19.5
				c1.6,7.7,0.9,15.9,1.6,23.7c0.3,3.4,1.1,6.7,1.6,10.1c0.7,4.7-0.6,9.2-1,13.9c-0.6,5.6,0.2,11.4-0.7,16.9
				c-0.8,4.8-2.2,10-3.3,14.4"/>
			<path class="st2" d="M320.5,421.6c3.5-3.7,7.7-7,11.2-10.9c4.2-4.8,5.4-9.2,7.8-14.7c3.3-7.7,5.5-13.2,4.7-21.9
				c-0.6-6.4-1.7-13.1-2-19.5c-0.7-14.3-5-29.7-12.3-42c-4.1-6.8-8.7-13.2-12.2-20.4c-3.2-6.6-8.9-10.6-14.3-15.4
				c-10.4-9.1-27.6-16-41.5-14.8c0.1,0.5,0.3,0.1,0.6,0.3"/>
		</g>
		<g id="Layer_2">
			<path class="st2" d="M229.8,201.6c0,3.9-0.4,7.4-0.8,11.2c-0.3,3.3,0.7,7.9-0.5,10.8c2.8,2.6,9,3.4,12.7,4.6
				c7.4,2.3,14.8,4.5,22.3,6.8c9.4,3,19.5,4.3,28.8,7.7c8.8,3.2,17.8,5.5,26.6,8.3c5,1.6,10.9,4.7,15.9,5.6
				c0.8-4.2,0.7-8.7,0.7-13.1c0-3.8-1-10.7,0.2-14.1c-12.7-1.3-25.1-6.7-37.7-9.2c-7.4-1.5-13.9-4.9-21.2-6.9
				c-9.9-2.7-20.5-2.6-30.7-5.5C240.6,206,235.1,202.8,229.8,201.6z"/>
			<path class="st2" d="M224.5,189.2c-1.9,8.5-2.1,18.1-1.7,27.2c0.2,3.4,0.3,7.1,0.7,10.5c0.5,4.5,1.4,4.7,5.6,6.3
				c10.4,3.8,20.8,5.6,31.4,8.6c14.4,4,28.3,9.7,42.5,14.1c8.4,2.6,17.1,4.1,25.5,6.5c3.1,0.9,6.4,2.3,9.5,2.9
				c2,0.4,4.2-0.4,6.1,0.3c1.6-3.4,0.9-9.8,0.7-13.6c-0.3-6-0.6-12.4-0.6-18.4c0-4.1,1.5-10-2.4-11.8c-3.3-1.6-7.9-1.8-11.5-2.9
				c-12.9-3.6-25.7-6.8-38.8-10.3c-12.3-3.3-24.6-7.5-37.2-10.7c-6.3-1.6-12.6-3.3-18.7-4.6C232.8,192.6,226.7,189.9,224.5,189.2z"
				/>
			<path class="st2" d="M108.5,314.9c-4.3,0-10.5,7.6-12.8,10.6c-4.5,5.7-8.6,12.3-9.9,19.4c-1.6,9.2-1.6,19-2,28.3
				c-0.4,10.1,0.1,21.1,3.2,30.7c3.5,10.6,8.5,20.8,13.7,30.6c3.3,6.2,6,12.1,10.8,17.2c4.1,4.3,8.9,7.6,13.9,10.8
				c11.1,7.1,19.4,18.2,34,18.4c5.1,0.1,11.4-1.6,16.3-3.3c6.5-2.3,10.7-6.8,14.7-12.1c8.9-11.7,13.9-28.8,14-43.6
				c0-7.1-3.3-14.2-4-21.3c-0.9-8.8-1.5-17.4-3.7-26c-4-15.8-13.5-31.5-23.7-44.1c-7.7-9.4-20-14.5-30.6-19.7c-5.4-2.6-8.4-4-14.3-3
				c-5.5,0.9-10.9,1.7-16,4C110.3,312.7,108.3,313.6,108.5,314.9z"/>
			<path class="st2" d="M85.5,344.9c0.7-9.3,6.1-19.9,11.5-27.5c5.9-8.4,17.1-15.2,27.4-17c23.7-4.1,41.2,14.3,57.6,28.2
				c8.9,7.5,14.9,21.1,18.8,31.7c2.2,5.9,4.8,11.7,6.9,17.8c2.7,7.8,2.6,15,3.4,23.1c1.5,14.5,3.4,28.6,0.1,43
				c-2.4,10.5-10.2,18.2-18.3,25c-6.9,5.8-12,9.1-20.6,11c-6.7,1.5-12.6,2-19.2,0.3c-1.4-0.4-2.3-0.2-3.3-1.3"/>
			<path class="st2" d="M166.8,324.9c-2.5-1.6-5.8-0.7-8.7,0.3c-6.2,2.2-10.9,7.5-14.3,12.9c-8.5,13.7-5.7,32.2-3.1,47.2
				c2.8,16.3,10.8,32.8,24.2,42.9c8.3,6.3,19.1,9.8,28.9,5.8c6-2.4,7.6-7.2,9.3-12.8"/>
			<path class="st2" d="M104.8,307.9c2.1-2.6,7.1-4.9,10.1-6.6c4-2.3,6.1-5.3,9.9-8.1c5.1-3.8,11.5-5.5,17.7-7.1
				c6.6-1.8,13.5-1.9,19.9-4.2c3.2-1.2,14.2-3.2,15.1-5.1"/>
			<path class="st2" d="M241.3,206.2c-3.6,3.9-1.8,14.4-1.8,19.8"/>
			<path class="st2" d="M246.3,209c-0.7,6.3-0.3,14.6-0.9,19.8"/>
			<path class="st2" d="M251.9,210.4c0,7,0.3,14.4-0.5,21.2"/>
			<path class="st2" d="M257.9,210.8c-1.2,3.1-0.5,8.8-0.9,12.4c-0.3,2.8-0.1,6.2,0.4,7.9"/>
			<path class="st2" d="M263.9,212.2c0,5.6,1,17.2,0,20.8"/>
			<path class="st2" d="M268.9,212.7c-0.3,4.3,0.7,8.7,0.5,13.1c-0.2,3.7-1.2,7.6-0.9,11.3"/>
			<path class="st2" d="M273.6,215.6c1.9,5.8,0,15.6,0,20.8"/>
			<path class="st2" d="M280.5,217.3c-0.1,6.9-4,17.7-1.4,23.5"/>
			<path class="st2" d="M287.4,219.1c-1.4,2.6-0.5,8.2-1,11.6c-0.5,3.8-0.9,7.2-0.9,11"/>
			<path class="st2" d="M292.9,220.6c0.4,7.4-0.2,15.9-1.9,23.1c-0.1,0.8,0.2-0.3,0.5-0.4"/>
			<path class="st2" d="M298,221.9c0,7.2,0.3,15.7-1.3,22.7c-0.6,0.7,0.5-0.8,0.4-0.6"/>
			<path class="st2" d="M304,223.3c0,7.7-1.6,14.3-2.3,21.7"/>
			<path class="st2" d="M310,223.8c0,8.3-2.4,17.4-1.8,25.4"/>
			<path class="st2" d="M315.1,226.1c0.1,6.9-0.3,14.3-2.3,20.8"/>
			<path class="st2" d="M322,227c0,7.5-0.4,15-1.3,22.3c-0.5,0.6,0.4-0.7,0.4-0.6"/>
			<path class="st2" d="M327.1,231.1c0.2,6.8-1.5,13.6-1.8,20.3"/>
			<path class="st2" d="M231.6,207.6c7.5,5.6,23.3,8.3,33.7,13.1c15.9,7.2,34.5,6.4,50.8,13.6c2.9,1.3,5.3,2.9,8.3,3.8
				s6.5,1,9.2,2.3"/>
			<path class="st2" d="M231.6,215.6c5.5,1.6,11,4.8,16.6,7c8.2,3.4,17,5.4,25.5,7.7c7.2,2,14.5,4,21.8,5.9
				c8.5,2.2,18.1,3.7,26.3,6.6c4.8,1.7,9.5,6,14.5,6.5"/>
			<path class="st3" d="M167,332.4c0.2-0.1,0.4-0.4,0.6-0.5c-6.1-5.6-10.8,13.6-11.2,16.4c-0.7,4.9,0.3,9.6,0.5,14.5
				c0.2,5.7,0.5,11.5,2.1,17c1.1,4.1,1.9,9.3,3.8,13.1c1.7,3.3,4.7,6.3,6.7,9.4c2.9,4.4,4.8,8.6,8.5,12.5c3.8,4.1,9.2,10.5,15,11.6
				c14.2,2.8,7.7-23.2,7-29.9c-0.7-6,0.1-13.8-1.9-19.3c-2.5-6.7-5.3-13.1-8.6-19.5c-3.1-6.1-6.4-11.3-11-16.2
				c-2.5-2.6-4.5-6-7.3-8.3c-1.7-1.3-3.6-1.8-5.2-2.5"/>
		</g>
	</g>
	<g>
		<path class="st4" d="M83.7,599.5c10.6,0,18.5,5.5,18.5,16.7s-8,17.4-18.5,17.4h-7.4v20.1H63.9v-54.2H83.7z M79.8,623.8
			c4.9,0,9.5-1.6,9.5-7.2c0-5.6-4.6-7.2-9.5-7.2h-3.5v14.4H79.8z"/>
		<path class="st4" d="M107.7,597.2h11.6v26.4h0.1c2.6-2.6,6-4.5,9.7-4.5c6.2,0,14.8,3.1,14.8,12.5v22.2h-11.6v-19.1
			c0-3.4-2.3-6.6-6-6.6c-3.5,0-6.9,3.2-6.9,6.6v19.1h-11.6L107.7,597.2L107.7,597.2L107.7,597.2z"/>
		<path class="st4" d="M169,619c11.2,0,20.1,7.4,20.1,17.9c0,10.4-8.5,17.8-20.1,17.8c-12.2,0-20.3-7.4-20.3-17.8
			C148.7,626.4,157.7,619,169,619z M169,644.8c4.5,0,7.8-3.3,7.8-7.9c0-4.7-3.5-8-7.8-8c-4.4,0-7.9,3.3-7.9,8
			C161.1,641.5,164.2,644.8,169,644.8z"/>
		<path class="st4" d="M196.2,607.5h11.6v12.6h7.1v8.9h-7.1v10.7c0,3.2,0.8,4.7,2.6,4.7c1.5,0,2.9-1.1,2.9-1.1l2.9,9.4
			c0,0-3.7,2.1-8.5,2.1c-9.3,0-11.5-6.9-11.5-12.9V629h-4.9v-8.9h4.9V607.5z"/>
		<path class="st4" d="M238.1,619c11.2,0,20.1,7.4,20.1,17.9c0,10.4-8.5,17.8-20.1,17.8c-12.2,0-20.3-7.4-20.3-17.8
			C217.8,626.4,226.7,619,238.1,619z M238,644.8c4.5,0,7.8-3.3,7.8-7.9c0-4.7-3.5-8-7.8-8c-4.4,0-7.9,3.3-7.9,8
			C230.2,641.5,233.3,644.8,238,644.8z"/>
		<path class="st4" d="M271.7,657.3c1.2,2,4.1,4.3,9.1,4.3c3.2,0,8.2-1.9,8.2-7.9v-2.5c-2.5,2.8-6.4,3.4-11,3.4
			c-9.9,0-16.8-8-16.8-17.8s6.9-17.9,16.8-17.9c4.5,0,8.1,1.4,10.8,4h0.2v-3h11.6v34.6c0,11.3-8.3,17.2-19.8,17.2
			c-7,0-15.1-1.6-18.7-9.8L271.7,657.3z M281.5,644.8c4.5,0,7.8-3.3,7.8-7.9c0-4.7-3.5-8-7.8-8c-4.4,0-7.9,3.3-7.9,8
			C273.6,641.5,276.7,644.8,281.5,644.8z"/>
		<path class="st4" d="M308.6,620h11.6v4.9h0.1c0,0,3.7-5.8,10.3-5.8c4.3,0,7.4,2.1,7.4,2.1l-4.9,9.9c0,0-2.2-1.8-6-1.8
			c-6,0-6.9,6-6.9,6.8v17.7h-11.6V620z"/>
		<path class="st4" d="M355.1,619c4.5,0,8.3,1.5,11,4.2V620h11.6v33.7h-11.5v-3.8h-0.1c-2.5,2.8-6.4,4.8-11,4.8
			c-9.9,0-16.8-8-16.8-17.8S345.2,619,355.1,619z M358.6,644.8c4.5,0,7.8-3.3,7.8-7.9c0-4.7-3.5-8-7.8-8c-4.4,0-7.9,3.3-7.9,8
			C350.7,641.5,353.8,644.8,358.6,644.8z"/>
		<path class="st4" d="M408.3,654.7c-4.5,0-8.3-1.5-11-4.2v20.3h-11.6V620h11.5v3.8h0.1c2.5-2.8,6.4-4.8,11-4.8
			c9.9,0,16.8,8,16.8,17.8C425.1,646.7,418.2,654.7,408.3,654.7z M404.8,629c-4.5,0-7.8,3.3-7.8,7.9c0,4.7,3.5,8,7.8,8
			c4.4,0,7.9-3.3,7.9-8S409.6,629,404.8,629z"/>
		<path class="st4" d="M430.5,597.2h11.6v26.4h0.1c2.6-2.6,6-4.5,9.7-4.5c6.2,0,14.8,3.1,14.8,12.5v22.2h-11.6v-19.1
			c0-3.4-2.3-6.6-6-6.6c-3.5,0-6.9,3.2-6.9,6.6v19.1h-11.6L430.5,597.2L430.5,597.2z"/>
		<path class="st4" d="M512.9,620l-26.4,50.8h-13.4l11.6-22.3l-16-28.5h13.4l9.4,17.3l8-17.3H512.9z"/>
	</g>
</g>
</svg>
